<?xml version="1.0" encoding="utf-8"?>
<!-- Generator: Adobe Illustrator 26.0.3, SVG Export Plug-In . SVG Version: 6.00 Build 0)  -->
<svg version="1.0" id="katman_1" xmlns="http://www.w3.org/2000/svg" xmlns:xlink="http://www.w3.org/1999/xlink" x="0px" y="0px"
	 viewBox="0 0 600 450" style="enable-background:new 0 0 600 450;" xml:space="preserve">
<g transform="translate(0 11.532)">
	<g transform="translate(0 0)">
		<path d="M85.8,212.4c-0.4-5.5-5-9.7-10.5-9.5c-5.9,0.1-10.6,5-10.5,10.9c0,6.6,4.6,11.3,12.4,11.3H92c-3.6,5.6-9.9,9-16.6,9
			c-11.1,0-20.1-9-20.1-20.1c0-11.1,9-20.1,20.1-20.1c11.1,0,20.1,9,20.1,20.1c0,2.1-0.4,4.2-1,6.3H72.1V218l7.9-0.2
			C84,217.6,85.8,215.6,85.8,212.4"/>
	</g>
</g>
<path d="M112.2,217.8l7.7-11.2h10.6l-13,18.2l14.1,19.6h-11.2l-8.4-12.2l-8.5,12.2H92.8l13.8-19.1l-13.4-18.6h11.2L112.2,217.8z"/>
<path d="M142.7,259.9H133v-53.3h9.8v7.3c0,0.2,0.1,0.3,0.2,0.3c0.1,0,0.2-0.1,0.2-0.2c2.2-5.1,7.2-8.5,12.8-8.5c4.6,0,9,2,12.1,5.4
	c1.7,1.8,3,4,3.9,6.3c1,2.6,1.5,5.4,1.4,8.3c0,2.8-0.5,5.6-1.4,8.3c-0.9,2.3-2.2,4.5-3.8,6.3c-3.1,3.4-7.5,5.4-12.1,5.4
	c-5.6,0-10.6-3.3-12.8-8.5c-0.1-0.1-0.2-0.2-0.2-0.2c-0.1,0-0.2,0.1-0.2,0.3V259.9L142.7,259.9z M153.2,213.6
	c-2.8,0-5.5,1.2-7.4,3.3c-2.1,2.3-3.3,5.4-3.2,8.5c0,3.2,1.1,6.2,3.2,8.5c1.9,2.1,4.6,3.3,7.4,3.4c2.9,0,5.6-1.2,7.5-3.4
	c2.1-2.3,3.2-5.4,3.2-8.5c0.1-3.1-1.1-6.2-3.2-8.5C158.8,214.8,156.1,213.6,153.2,213.6z"/>
<path d="M207,223.9c-0.4-5.5-5-9.7-10.5-9.5c-5.9,0.1-10.6,5-10.5,10.9c0,6.6,4.6,11.3,12.4,11.3h14.8c-3.6,5.6-9.9,9-16.6,9
	c-11.1,0-20.1-9-20.1-20.1s9-20.1,20.1-20.1c11.1,0,20.1,9,20.1,20.1c0,2.1-0.4,4.2-1,6.3h-22.4v-2.2l7.9-0.2
	C205.2,229.2,207,227.1,207,223.9"/>
<path d="M237.3,245.4c-4.6,0-9-2-12.1-5.4c-1.7-1.8-3-4-3.9-6.3c-1-2.6-1.5-5.4-1.4-8.3c0-2.8,0.5-5.6,1.4-8.3
	c0.9-2.3,2.2-4.5,3.9-6.3c3.1-3.4,7.5-5.4,12.1-5.4c5.6,0,10.6,3.3,12.8,8.5c0.1,0.1,0.2,0.2,0.2,0.2c0.1,0,0.2-0.1,0.2-0.3v-23.7
	h9.8v54.1h-9.8V237c0-0.2-0.1-0.3-0.2-0.3c-0.1,0-0.2,0.1-0.2,0.2C247.9,242.1,242.8,245.4,237.3,245.4z M239.9,213.6
	c-2.9,0-5.6,1.2-7.5,3.4c-2.1,2.3-3.2,5.4-3.2,8.5c-0.1,3.1,1.1,6.2,3.2,8.5c1.9,2.1,4.6,3.3,7.5,3.4c2.8,0,5.5-1.3,7.4-3.4
	c2.1-2.3,3.3-5.4,3.2-8.5c0-3.2-1.1-6.2-3.2-8.5C245.5,214.9,242.8,213.6,239.9,213.6L239.9,213.6z"/>
<g>
	<g>
		<path d="M277,244.4h-9.8v-37.8h9.8V244.4z M272.1,201.3c-3.1,0-5.7-2.6-5.7-5.7c0-3.1,2.6-5.7,5.7-5.7c3.1,0,5.7,2.6,5.7,5.7
			C277.8,198.7,275.2,201.3,272.1,201.3z"/>
		<path d="M299.3,245.4c-4.6,0-9-2-12.1-5.4c-1.7-1.8-3-4-3.9-6.3c-1-2.6-1.5-5.4-1.4-8.3c0-2.8,0.5-5.6,1.4-8.3
			c0.9-2.3,2.2-4.5,3.9-6.3c3.1-3.4,7.5-5.4,12.1-5.4c5.6,0,10.6,3.3,12.8,8.5c0.1,0.1,0.2,0.2,0.2,0.2c0.1,0,0.2-0.1,0.2-0.3v-7.3
			h9.8v37.8h-9.8V237c0-0.2-0.1-0.3-0.2-0.3c-0.1,0-0.2,0.1-0.2,0.2C309.9,242.1,304.9,245.4,299.3,245.4z M302,213.6
			c-2.8,0-5.6,1.2-7.5,3.3c-2.1,2.3-3.2,5.4-3.2,8.5c-0.1,3.1,1.1,6.2,3.2,8.5c1.9,2.1,4.6,3.3,7.5,3.4c2.8,0,5.5-1.3,7.4-3.4
			c2.1-2.3,3.3-5.4,3.2-8.5c0-3.2-1.1-6.2-3.2-8.5C307.5,214.9,304.8,213.6,302,213.6L302,213.6z"/>
		<path d="M360.9,260.8c-3.3,0-6.6-0.6-9.7-1.7c-2.9-1.1-5.6-2.7-7.9-4.8l5.9-6.4c3.8,3,6.9,4.7,11.6,4.7c3,0.2,5.9-1,7.8-3.3
			c1.7-2.3,2.5-5.1,2.4-8v-4.6c0-0.2-0.1-0.3-0.2-0.3c-0.1,0-0.2,0.1-0.2,0.2c-2.1,5.1-7.1,8.4-12.6,8.5c-4.6,0-8.9-2-12-5.3
			c-1.7-1.8-3-3.9-3.8-6.2c-1-2.6-1.4-5.4-1.4-8.2c0-2.8,0.5-5.6,1.4-8.2c0.9-2.3,2.1-4.4,3.8-6.2c3.1-3.4,7.4-5.3,12-5.3
			c5.5,0,10.5,3.4,12.6,8.5c0.1,0.1,0.2,0.2,0.2,0.2c0.1,0,0.2-0.1,0.2-0.3v-7.3h9.8v35.6c0.1,4.9-1.8,9.7-5.2,13.3
			C371.9,259,366.8,260.8,360.9,260.8z M360.5,213.6c-2.8,0-5.5,1.2-7.4,3.3c-2.1,2.3-3.2,5.3-3.1,8.4c-0.1,3.1,1.1,6.1,3.1,8.4
			c1.9,2.1,4.6,3.3,7.4,3.3c2.8,0,5.4-1.2,7.3-3.3c2.1-2.3,3.2-5.3,3.2-8.4c0-3.1-1.1-6.1-3.2-8.4
			C366,214.8,363.3,213.6,360.5,213.6L360.5,213.6z"/>
		<path d="M397.4,206.6v8.2c0,0.2,0.2,0.2,0.2,0c1.3-6.8,4.2-9.3,9.3-9.3h0.9v10.3h-4.4c-4,0-6,3.1-6,7.5v21.1h-9.8v-37.8H397.4z"/>
		<path d="M428.6,245.6c-11.1,0.1-20.2-8.8-20.3-19.9c-0.1-11.1,8.8-20.2,19.9-20.3c0.1,0,0.2,0,0.3,0c5.3,0,10.4,2.1,14.1,5.9
			c7.8,7.8,7.9,20.5,0,28.4c0,0,0,0,0,0C439,243.5,433.9,245.6,428.6,245.6z M428.5,214.2c-2.8,0-5.6,1.2-7.5,3.2
			c-2,2.2-3.2,5-3.1,8c0,3,1.1,5.8,3.1,8c3.9,4.2,10.5,4.3,14.7,0.4c0.1-0.1,0.3-0.3,0.4-0.4c2-2.2,3.2-5,3.1-8c0-3-1.1-5.8-3.1-8
			C434.1,215.4,431.4,214.2,428.5,214.2z"/>
		<path d="M468.9,245.6c-9.5,0-15.6-5.8-15.6-14.2v-24.8h9.8v24c-0.2,3.2,2.2,6,5.4,6.2c0.2,0,0.5,0,0.7,0c3.2,0,5.8-2.5,5.9-5.7
			c0-0.1,0-0.3,0-0.4v-24.1h9.8v24.8C484.8,239.8,478.2,245.6,468.9,245.6"/>
		<path d="M501.3,259.9h-9.8v-53.3h9.8v7.3c0,0.2,0.1,0.3,0.2,0.3c0.1,0,0.2-0.1,0.2-0.2c2.2-5.1,7.2-8.5,12.8-8.5
			c4.6,0,9,2,12.1,5.4c1.7,1.8,3,4,3.9,6.3c1,2.6,1.5,5.4,1.4,8.3c0,2.8-0.5,5.6-1.4,8.3c-0.9,2.3-2.2,4.5-3.8,6.3
			c-3.1,3.4-7.5,5.4-12.1,5.4c-5.6,0-10.6-3.3-12.8-8.5c-0.1-0.1-0.2-0.2-0.2-0.2c-0.1,0-0.2,0.1-0.2,0.3V259.9L501.3,259.9z
			 M511.8,213.6c-2.8,0-5.5,1.2-7.4,3.3c-2.1,2.3-3.3,5.4-3.2,8.5c0,3.2,1.1,6.2,3.2,8.5c1.9,2.1,4.6,3.3,7.4,3.4
			c2.9,0,5.6-1.2,7.5-3.4c2.1-2.3,3.2-5.4,3.2-8.5c0.1-3.1-1.1-6.2-3.2-8.5C517.4,214.8,514.7,213.6,511.8,213.6z"/>
		<path d="M538.8,206.7v1h-1.7v4.7h-1.2v-4.7h-1.7v-1H538.8z"/>
		<path d="M543.3,206.7h1.7v5.7h-1.1v-3.8c0-0.1,0-0.3,0-0.5c0-0.2,0-0.4,0-0.5l-1.1,4.7h-1.1l-1.1-4.7c0,0.1,0,0.3,0,0.5
			c0,0.2,0,0.4,0,0.5v3.8h-1.1v-5.7h1.7l1,4.4L543.3,206.7z"/>
	</g>
</g>
</svg>
