<?xml version="1.0" encoding="UTF-8"?>
<svg xmlns="http://www.w3.org/2000/svg" xmlns:xlink="http://www.w3.org/1999/xlink" width="110px" height="110px" viewBox="0 0 110 110" version="1.1">
<g id="surface1">
<rect x="0" y="0" width="110" height="110" style="fill:rgb(100%,100%,100%);fill-opacity:1;stroke:none;"/>
<path style=" stroke:none;fill-rule:evenodd;fill:rgb(0%,0%,0%);fill-opacity:1;" d="M 48.757812 41.039062 L 48.566406 41.972656 C 48.566406 41.972656 33.6875 39.75 33.285156 29.316406 L 33.464844 29.316406 C 34.1875 39.867188 48.757812 41.039062 48.757812 41.039062 Z M 60.09375 39.671875 L 59.933594 38.917969 C 54.582031 39.0625 46.203125 39.332031 42.078125 37.707031 C 45.863281 39.738281 52.148438 39.671875 60.09375 39.671875 Z M 35.128906 38.824219 C 35.128906 49.34375 43.640625 57.867188 54.140625 57.867188 C 64.644531 57.867188 73.15625 49.34375 73.15625 38.824219 C 73.15625 28.308594 64.644531 19.785156 54.140625 19.785156 C 46.914062 19.785156 40.625 23.824219 37.410156 29.773438 C 39.105469 32.496094 44.441406 34.1875 50.828125 34.371094 C 51.722656 32.640625 55.515625 26.484375 58.007812 26.851562 C 60.089844 27.164062 59.996094 31.414062 59.777344 34.015625 C 60.335938 34.042969 60.65625 34.589844 60.714844 35.273438 C 60.75 35.675781 60.699219 35.964844 60.699219 35.964844 C 65.394531 35.644531 67.4375 36.890625 67.289062 39.230469 C 67.152344 41.328125 63.640625 43.292969 57.566406 43.316406 C 57.863281 43.613281 58.054688 44.050781 58.074219 44.546875 C 58.105469 45.445312 57.546875 46.195312 56.8125 46.25 C 56.8125 46.25 55.886719 46.257812 55.511719 46.253906 C 53.316406 49.445312 51.203125 53.074219 48.582031 52.332031 C 46.769531 51.824219 46.992188 47.316406 47.214844 44.765625 C 39.441406 43.664062 35.128906 38.824219 35.128906 38.824219 Z M 33.167969 39.367188 C 33.167969 38.378906 33.238281 37.410156 33.371094 36.457031 C 30.859375 32.5625 31.660156 27.25 33.089844 25.320312 L 33.273438 25.320312 C 29.914062 32.023438 35.386719 41.363281 48.230469 43.257812 C 48.230469 43.257812 47 51.511719 48.867188 51.746094 C 51.945312 52.125 57.421875 41.566406 57.421875 41.566406 C 62.828125 41.90625 66.648438 40.414062 66.679688 39.128906 C 66.746094 36.683594 63.859375 36.726562 62.988281 36.613281 C 58.792969 36.066406 42.011719 41.398438 35.488281 31.347656 L 35.65625 31.347656 C 41.640625 40.144531 58.246094 36.1875 58.246094 36.1875 C 58.515625 35.15625 60.640625 27.675781 57.84375 27.339844 C 55.664062 27.082031 51.414062 35.5625 51.414062 35.5625 C 34.136719 35.167969 32.503906 24.660156 40.214844 20.789062 L 40.589844 20.789062 C 38.703125 21.753906 35.824219 24.679688 36.589844 27.945312 C 40.296875 22.335938 46.652344 18.632812 53.871094 18.632812 C 65.304688 18.632812 74.578125 27.917969 74.578125 39.367188 C 74.578125 50.816406 65.304688 60.101562 53.871094 60.101562 C 42.4375 60.097656 33.167969 50.816406 33.167969 39.367188 Z M 62.785156 39.699219 C 62.785156 39.699219 62.5 39.703125 61.992188 39.699219 L 61.835938 38.941406 C 62.339844 38.945312 62.617188 38.941406 62.617188 38.941406 Z M 61.425781 39.691406 L 61.269531 38.933594 L 60.570312 38.925781 L 60.726562 39.683594 Z M 60.761719 22.859375 C 61.644531 23.257812 62.476562 23.71875 63.261719 24.238281 L 62.65625 25.148438 C 61.96875 24.570312 61.242188 24.039062 60.476562 23.558594 Z M 64.464844 25.117188 L 63.691406 26.085938 C 68.796875 31.078125 70.886719 38.714844 68.515625 45.886719 L 69.410156 46.324219 C 69.632812 45.84375 69.839844 45.34375 70.027344 44.835938 C 72.667969 37.5625 70.203125 29.675781 64.464844 25.117188 Z M 57.019531 45.8125 C 56.890625 45.816406 56.765625 45.75 56.660156 45.628906 C 56.992188 45.574219 57.238281 45.140625 57.21875 44.625 C 57.207031 44.359375 57.132812 44.121094 57.015625 43.949219 L 57.203125 43.644531 C 57.425781 43.816406 57.589844 44.203125 57.605469 44.660156 C 57.625 45.285156 57.363281 45.800781 57.019531 45.8125 Z M 59.863281 35.988281 C 60.023438 35.855469 60.125 35.59375 60.113281 35.296875 C 60.101562 34.925781 59.917969 34.621094 59.683594 34.558594 C 59.738281 34.5 59.816406 34.464844 59.894531 34.457031 C 60.164062 34.449219 60.398438 34.835938 60.414062 35.324219 C 60.421875 35.578125 60.371094 35.8125 60.28125 35.976562 Z M 58.242188 28.109375 C 58.351562 28.476562 58.394531 28.96875 58.402344 29.476562 C 58.421875 30.320312 58.339844 31.210938 58.292969 31.664062 C 58.222656 32.246094 58.148438 32.828125 58.066406 33.410156 C 57.988281 33.964844 57.910156 34.519531 57.828125 35.074219 C 58.066406 34.09375 58.285156 33.105469 58.488281 32.113281 C 59.050781 29.339844 58.46875 28.367188 58.242188 28.109375 Z M 50.894531 40.53125 C 51.914062 40.609375 54.238281 40.804688 55.03125 41.003906 C 55.472656 41.109375 55.734375 41.175781 55.859375 41.292969 C 55.996094 41.429688 55.964844 41.601562 55.792969 41.914062 C 55.753906 41.976562 55.640625 42.199219 55.484375 42.507812 C 54.972656 43.5 53.984375 45.414062 53.523438 46.175781 C 53.21875 46.675781 52.679688 47.574219 52.035156 48.488281 C 51.390625 49.40625 50.648438 50.339844 49.945312 50.902344 C 49.90625 50.933594 49.863281 50.964844 49.824219 50.996094 C 49.878906 50.964844 49.929688 50.929688 49.980469 50.898438 C 50.476562 50.554688 51.019531 49.949219 51.519531 49.304688 C 52.023438 48.664062 52.484375 47.984375 52.808594 47.5 C 53.789062 46.046875 54.664062 44.585938 55.335938 43.46875 C 55.617188 42.988281 55.90625 42.515625 56.203125 42.042969 C 56.609375 41.414062 56.519531 41.085938 56.261719 40.914062 C 55.992188 40.730469 55.539062 40.703125 55.265625 40.675781 C 54.382812 40.597656 51.855469 40.546875 50.894531 40.53125 Z M 65.679688 37.476562 C 65.949219 38.3125 64.609375 38.761719 64.609375 38.761719 L 64.234375 38.523438 C 64.234375 38.523438 65.101562 37.878906 65.394531 37.347656 Z M 75.1875 48.175781 L 75.1875 48.359375 L 74.660156 48.359375 L 74.660156 49.734375 L 74.445312 49.734375 L 74.445312 48.359375 L 73.921875 48.359375 L 73.921875 48.175781 Z M 75.371094 48.175781 L 75.671875 48.175781 L 76.121094 49.492188 L 76.566406 48.175781 L 76.863281 48.175781 L 76.863281 49.730469 L 76.660156 49.730469 L 76.660156 48.8125 L 76.664062 48.65625 C 76.664062 48.582031 76.667969 48.503906 76.667969 48.417969 L 76.222656 49.734375 L 76.015625 49.734375 L 75.570312 48.417969 L 75.570312 48.46875 C 75.570312 48.503906 75.570312 48.5625 75.570312 48.640625 L 75.574219 48.8125 L 75.574219 49.730469 L 75.371094 49.730469 Z M 7.394531 83.96875 L 8.429688 83.96875 C 9.007812 83.96875 9.429688 84.167969 9.699219 84.574219 C 9.96875 84.976562 10.105469 85.429688 10.105469 85.9375 C 10.105469 86.5625 9.960938 87.0625 9.679688 87.445312 C 9.394531 87.824219 8.976562 88.015625 8.429688 88.015625 L 7.394531 88.015625 Z M 8.679688 88.558594 C 9.28125 88.558594 9.78125 88.3125 10.175781 87.8125 C 10.566406 87.316406 10.765625 86.703125 10.765625 85.976562 C 10.765625 85.261719 10.5625 84.660156 10.160156 84.164062 C 9.753906 83.667969 9.191406 83.421875 8.46875 83.421875 L 6.746094 83.421875 L 6.746094 88.558594 Z M 12.40625 87.8125 C 12.207031 87.578125 12.105469 87.1875 12.105469 86.644531 C 12.105469 86.128906 12.207031 85.753906 12.40625 85.515625 C 12.609375 85.28125 12.855469 85.164062 13.148438 85.164062 C 13.433594 85.164062 13.683594 85.277344 13.894531 85.511719 C 14.105469 85.75 14.210938 86.128906 14.210938 86.648438 C 14.210938 87.167969 14.113281 87.550781 13.910156 87.796875 C 13.707031 88.042969 13.457031 88.164062 13.15625 88.164062 C 12.859375 88.164062 12.609375 88.046875 12.40625 87.8125 Z M 14.375 88.101562 C 14.699219 87.730469 14.863281 87.246094 14.863281 86.652344 C 14.863281 86.085938 14.710938 85.613281 14.410156 85.234375 C 14.109375 84.851562 13.695312 84.664062 13.171875 84.664062 C 12.683594 84.664062 12.277344 84.84375 11.949219 85.203125 C 11.621094 85.566406 11.457031 86.046875 11.457031 86.652344 C 11.457031 87.222656 11.601562 87.699219 11.894531 88.085938 C 12.1875 88.472656 12.59375 88.664062 13.113281 88.664062 C 13.628906 88.664062 14.046875 88.476562 14.375 88.101562 Z M 18.871094 88.558594 L 18.316406 88.558594 L 18.316406 86.125 C 18.316406 85.777344 18.238281 85.53125 18.085938 85.386719 C 17.9375 85.246094 17.738281 85.167969 17.535156 85.171875 C 17.234375 85.171875 16.980469 85.292969 16.78125 85.535156 C 16.574219 85.773438 16.472656 86.089844 16.472656 86.480469 L 16.472656 88.558594 L 15.882812 88.558594 L 15.882812 84.769531 L 16.4375 84.769531 L 16.4375 85.464844 C 16.746094 84.929688 17.144531 84.664062 17.632812 84.664062 C 17.914062 84.664062 18.15625 84.738281 18.351562 84.882812 C 18.550781 85.03125 18.6875 85.195312 18.761719 85.378906 C 18.835938 85.5625 18.871094 85.890625 18.871094 86.367188 Z M 22.738281 88.140625 L 22.738281 88.617188 C 22.5625 88.644531 22.382812 88.660156 22.203125 88.664062 C 21.472656 88.664062 21.105469 88.277344 21.105469 87.511719 L 21.105469 85.21875 L 20.433594 85.21875 L 20.433594 84.765625 L 21.105469 84.765625 L 21.128906 83.8125 L 21.695312 83.757812 L 21.695312 84.765625 L 22.53125 84.765625 L 22.53125 85.21875 L 21.695312 85.21875 L 21.695312 87.601562 C 21.695312 87.992188 21.894531 88.1875 22.292969 88.1875 C 22.421875 88.1875 22.570312 88.171875 22.738281 88.140625 Z M 25.878906 83.421875 L 26.539062 83.421875 L 26.539062 84.085938 L 25.878906 84.085938 Z M 26.515625 84.71875 L 26.515625 88.675781 C 26.515625 89.121094 26.410156 89.433594 26.199219 89.605469 C 25.988281 89.785156 25.730469 89.871094 25.425781 89.871094 C 25.273438 89.871094 25.089844 89.84375 24.875 89.789062 L 24.875 89.3125 C 25.035156 89.351562 25.179688 89.371094 25.304688 89.371094 C 25.527344 89.371094 25.6875 89.320312 25.78125 89.210938 C 25.878906 89.105469 25.925781 88.921875 25.925781 88.664062 L 25.925781 84.722656 L 26.515625 84.722656 Z M 30.605469 88.558594 L 30.074219 88.558594 L 30.074219 87.828125 C 29.800781 88.386719 29.398438 88.664062 28.863281 88.664062 C 28.476562 88.664062 28.171875 88.539062 27.949219 88.28125 C 27.726562 88.027344 27.617188 87.664062 27.617188 87.191406 L 27.617188 84.769531 L 28.207031 84.769531 L 28.207031 87.183594 C 28.207031 87.554688 28.285156 87.8125 28.441406 87.953125 C 28.597656 88.097656 28.769531 88.164062 28.957031 88.164062 C 29.148438 88.164062 29.320312 88.113281 29.472656 88.003906 C 29.628906 87.898438 29.757812 87.746094 29.859375 87.550781 C 29.960938 87.351562 30.015625 87.136719 30.015625 86.902344 L 30.015625 84.769531 L 30.605469 84.769531 Z M 31.417969 87.5625 L 31.984375 87.445312 C 32.109375 87.925781 32.503906 88.164062 33.164062 88.164062 C 33.40625 88.164062 33.613281 88.109375 33.78125 88 C 33.945312 87.90625 34.039062 87.730469 34.035156 87.542969 C 34.035156 87.25 33.820312 87.0625 33.390625 86.984375 L 32.59375 86.828125 C 32.28125 86.769531 32.03125 86.652344 31.84375 86.476562 C 31.660156 86.300781 31.566406 86.070312 31.566406 85.78125 C 31.566406 85.464844 31.695312 85.199219 31.945312 84.984375 C 32.199219 84.769531 32.539062 84.664062 32.964844 84.664062 C 33.785156 84.664062 34.292969 84.988281 34.484375 85.636719 L 33.953125 85.753906 C 33.800781 85.359375 33.480469 85.164062 33 85.164062 C 32.761719 85.164062 32.566406 85.210938 32.410156 85.308594 C 32.257812 85.40625 32.183594 85.539062 32.183594 85.714844 C 32.183594 85.988281 32.375 86.164062 32.765625 86.234375 L 33.5 86.375 C 34.273438 86.515625 34.660156 86.890625 34.660156 87.5 C 34.660156 87.847656 34.515625 88.128906 34.230469 88.34375 C 33.941406 88.558594 33.558594 88.664062 33.082031 88.664062 C 32.183594 88.664062 31.628906 88.296875 31.417969 87.5625 Z M 37.09375 88.140625 L 37.09375 88.617188 C 36.914062 88.644531 36.734375 88.660156 36.554688 88.664062 C 35.824219 88.664062 35.460938 88.277344 35.460938 87.511719 L 35.460938 85.21875 L 34.789062 85.21875 L 34.789062 84.765625 L 35.460938 84.765625 L 35.480469 83.8125 L 36.050781 83.757812 L 36.050781 84.765625 L 36.882812 84.765625 L 36.882812 85.21875 L 36.050781 85.21875 L 36.050781 87.601562 C 36.050781 87.992188 36.25 88.1875 36.644531 88.1875 C 36.777344 88.1875 36.925781 88.171875 37.09375 88.140625 Z M 41.671875 88.140625 L 41.671875 88.617188 C 41.492188 88.644531 41.3125 88.660156 41.132812 88.664062 C 40.402344 88.664062 40.039062 88.277344 40.039062 87.511719 L 40.039062 85.21875 L 39.367188 85.21875 L 39.367188 84.765625 L 40.039062 84.765625 L 40.0625 83.8125 L 40.632812 83.757812 L 40.632812 84.765625 L 41.464844 84.765625 L 41.464844 85.21875 L 40.632812 85.21875 L 40.632812 87.601562 C 40.632812 87.992188 40.828125 88.1875 41.226562 88.1875 C 41.355469 88.1875 41.503906 88.171875 41.671875 88.140625 Z M 42.796875 88.558594 L 42.207031 88.558594 L 42.207031 84.769531 L 42.726562 84.769531 L 42.726562 85.660156 C 42.910156 85.246094 43.09375 84.972656 43.277344 84.847656 C 43.460938 84.722656 43.648438 84.664062 43.839844 84.664062 C 43.898438 84.664062 43.976562 84.667969 44.070312 84.675781 L 44.070312 85.246094 L 43.953125 85.246094 C 43.628906 85.246094 43.355469 85.367188 43.144531 85.609375 C 42.929688 85.851562 42.8125 86.167969 42.796875 86.5625 Z M 47.207031 86.914062 C 47.210938 87.246094 47.089844 87.570312 46.867188 87.816406 C 46.640625 88.070312 46.351562 88.199219 45.996094 88.199219 C 45.738281 88.199219 45.535156 88.136719 45.398438 88.007812 C 45.265625 87.886719 45.191406 87.714844 45.191406 87.539062 C 45.191406 87.246094 45.320312 87.027344 45.574219 86.875 C 45.832031 86.722656 46.191406 86.648438 46.652344 86.648438 C 46.777344 86.648438 46.957031 86.65625 47.195312 86.667969 C 47.203125 86.765625 47.207031 86.847656 47.207031 86.914062 Z M 47.785156 87.824219 L 47.785156 86.214844 C 47.785156 85.644531 47.679688 85.242188 47.457031 85.011719 C 47.238281 84.777344 46.867188 84.664062 46.347656 84.664062 C 45.363281 84.664062 44.804688 85.015625 44.671875 85.71875 L 45.203125 85.8125 C 45.300781 85.355469 45.648438 85.128906 46.242188 85.128906 C 46.488281 85.128906 46.683594 85.167969 46.832031 85.246094 C 46.984375 85.328125 47.082031 85.433594 47.128906 85.566406 C 47.171875 85.703125 47.195312 85.917969 47.195312 86.21875 C 47.03125 86.210938 46.863281 86.207031 46.695312 86.203125 C 45.921875 86.203125 45.375 86.328125 45.050781 86.574219 C 44.730469 86.820312 44.566406 87.132812 44.566406 87.515625 C 44.566406 87.832031 44.679688 88.101562 44.90625 88.328125 C 45.132812 88.550781 45.453125 88.664062 45.878906 88.664062 C 46.5 88.664062 46.9375 88.402344 47.195312 87.875 C 47.21875 88.210938 47.242188 88.441406 47.265625 88.5625 L 47.855469 88.5625 C 47.808594 88.320312 47.785156 88.070312 47.785156 87.824219 Z M 51.671875 84.765625 L 50.363281 88.558594 L 49.738281 88.558594 L 48.394531 84.765625 L 49.050781 84.765625 L 50.101562 87.851562 L 51.15625 84.765625 Z M 52.953125 86.261719 C 52.976562 85.914062 53.089844 85.632812 53.296875 85.425781 C 53.488281 85.222656 53.761719 85.109375 54.042969 85.113281 C 54.257812 85.113281 54.445312 85.171875 54.601562 85.289062 C 54.757812 85.402344 54.867188 85.539062 54.933594 85.703125 C 54.996094 85.867188 55.03125 86.054688 55.039062 86.261719 Z M 54.050781 88.164062 C 53.78125 88.164062 53.53125 88.066406 53.289062 87.867188 C 53.046875 87.667969 52.929688 87.285156 52.929688 86.714844 L 55.683594 86.714844 C 55.675781 86.03125 55.523438 85.519531 55.222656 85.175781 C 54.917969 84.835938 54.519531 84.664062 54.023438 84.664062 C 53.519531 84.664062 53.101562 84.847656 52.765625 85.222656 C 52.433594 85.59375 52.269531 86.082031 52.269531 86.683594 C 52.269531 87.273438 52.429688 87.753906 52.75 88.117188 C 53.074219 88.484375 53.492188 88.664062 54.011719 88.664062 C 54.40625 88.664062 54.746094 88.558594 55.039062 88.34375 C 55.320312 88.148438 55.527344 87.863281 55.625 87.535156 L 55.070312 87.421875 C 54.875 87.917969 54.535156 88.164062 54.050781 88.164062 Z M 56.472656 83.421875 L 57.0625 83.421875 L 57.0625 88.5625 L 56.472656 88.5625 Z M 58.230469 87.714844 L 59.078125 87.714844 L 59.078125 88.558594 L 58.230469 88.558594 Z M 19.492188 84.796875 L 19.785156 83.308594 L 20.398438 83.308594 L 19.816406 84.796875 Z M 63.304688 88.558594 L 62.65625 88.558594 L 62.65625 83.992188 L 61.183594 83.992188 L 61.183594 83.421875 L 64.773438 83.421875 L 64.773438 83.992188 L 63.304688 83.992188 Z M 65.480469 88.558594 L 64.890625 88.558594 L 64.890625 84.769531 L 65.410156 84.769531 L 65.410156 85.660156 C 65.589844 85.246094 65.773438 84.972656 65.957031 84.847656 C 66.140625 84.722656 66.328125 84.664062 66.519531 84.664062 C 66.582031 84.664062 66.660156 84.667969 66.753906 84.675781 L 66.753906 85.246094 L 66.632812 85.246094 C 66.308594 85.246094 66.039062 85.367188 65.824219 85.609375 C 65.609375 85.851562 65.492188 86.167969 65.480469 86.5625 Z M 69.886719 86.914062 C 69.886719 87.261719 69.777344 87.5625 69.546875 87.816406 C 69.320312 88.070312 69.03125 88.199219 68.679688 88.199219 C 68.417969 88.199219 68.21875 88.136719 68.082031 88.007812 C 67.949219 87.886719 67.871094 87.714844 67.875 87.539062 C 67.875 87.246094 68.003906 87.027344 68.257812 86.875 C 68.511719 86.722656 68.871094 86.648438 69.335938 86.648438 C 69.457031 86.648438 69.640625 86.65625 69.878906 86.667969 C 69.886719 86.765625 69.886719 86.847656 69.886719 86.914062 Z M 70.46875 87.824219 L 70.46875 86.214844 C 70.46875 85.644531 70.359375 85.242188 70.140625 85.011719 C 69.921875 84.777344 69.550781 84.664062 69.027344 84.664062 C 68.042969 84.664062 67.484375 85.015625 67.351562 85.71875 L 67.886719 85.8125 C 67.984375 85.355469 68.328125 85.128906 68.921875 85.128906 C 69.167969 85.128906 69.363281 85.167969 69.515625 85.246094 C 69.664062 85.328125 69.761719 85.433594 69.808594 85.566406 C 69.855469 85.703125 69.878906 85.917969 69.878906 86.21875 C 69.648438 86.207031 69.484375 86.203125 69.378906 86.203125 C 68.605469 86.203125 68.054688 86.328125 67.730469 86.574219 C 67.410156 86.820312 67.25 87.132812 67.25 87.515625 C 67.25 87.832031 67.359375 88.101562 67.585938 88.328125 C 67.8125 88.550781 68.136719 88.664062 68.558594 88.664062 C 69.179688 88.664062 69.617188 88.402344 69.878906 87.875 C 69.898438 88.210938 69.921875 88.441406 69.945312 88.5625 L 70.539062 88.5625 C 70.488281 88.320312 70.464844 88.070312 70.46875 87.824219 Z M 74.414062 84.765625 L 73.105469 88.558594 L 72.484375 88.558594 L 71.136719 84.765625 L 71.792969 84.765625 L 72.847656 87.851562 L 73.898438 84.765625 Z M 75.617188 86.261719 C 75.644531 85.914062 75.757812 85.632812 75.964844 85.425781 C 76.15625 85.222656 76.425781 85.109375 76.707031 85.113281 C 76.925781 85.113281 77.109375 85.171875 77.265625 85.289062 C 77.421875 85.402344 77.53125 85.539062 77.597656 85.703125 C 77.664062 85.867188 77.695312 86.054688 77.703125 86.261719 Z M 76.714844 88.164062 C 76.449219 88.164062 76.195312 88.066406 75.953125 87.867188 C 75.714844 87.667969 75.59375 87.285156 75.59375 86.714844 L 78.351562 86.714844 C 78.34375 86.03125 78.191406 85.519531 77.886719 85.175781 C 77.585938 84.835938 77.1875 84.664062 76.691406 84.664062 C 76.1875 84.664062 75.769531 84.847656 75.433594 85.222656 C 75.101562 85.59375 74.933594 86.082031 74.933594 86.683594 C 74.933594 87.273438 75.09375 87.753906 75.417969 88.117188 C 75.738281 88.484375 76.160156 88.664062 76.679688 88.664062 C 77.074219 88.664062 77.414062 88.558594 77.707031 88.34375 C 77.996094 88.132812 78.195312 87.863281 78.292969 87.535156 L 77.738281 87.421875 C 77.539062 87.917969 77.199219 88.164062 76.714844 88.164062 Z M 79.121094 83.421875 L 79.710938 83.421875 L 79.710938 88.5625 L 79.121094 88.5625 Z M 83.964844 83.992188 L 85.378906 83.992188 C 85.660156 83.992188 85.890625 84.066406 86.074219 84.214844 C 86.257812 84.363281 86.347656 84.574219 86.347656 84.84375 C 86.347656 85.109375 86.261719 85.335938 86.089844 85.523438 C 85.914062 85.707031 85.652344 85.800781 85.300781 85.800781 L 83.964844 85.800781 Z M 86.046875 86.179688 C 86.386719 86.070312 86.628906 85.894531 86.777344 85.640625 C 86.925781 85.390625 86.996094 85.128906 86.996094 84.855469 C 86.996094 84.5 86.867188 84.171875 86.601562 83.871094 C 86.335938 83.574219 85.929688 83.421875 85.382812 83.421875 L 83.363281 83.421875 L 83.363281 88.558594 L 83.964844 88.558594 L 83.964844 86.332031 L 85.445312 86.332031 L 86.382812 88.558594 L 87.058594 88.558594 Z M 88.167969 83.421875 L 88.804688 83.421875 L 88.804688 84.085938 L 88.167969 84.085938 Z M 88.191406 84.765625 L 88.777344 84.765625 L 88.777344 88.558594 L 88.191406 88.558594 Z M 90.808594 86.578125 C 90.65625 86.425781 90.578125 86.226562 90.578125 85.984375 C 90.578125 85.707031 90.664062 85.496094 90.832031 85.347656 C 90.992188 85.203125 91.203125 85.121094 91.417969 85.121094 C 91.648438 85.121094 91.84375 85.203125 92.003906 85.359375 C 92.164062 85.519531 92.246094 85.726562 92.246094 85.976562 C 92.246094 86.21875 92.167969 86.421875 92.011719 86.574219 C 91.859375 86.730469 91.65625 86.804688 91.410156 86.804688 C 91.164062 86.804688 90.960938 86.730469 90.808594 86.578125 Z M 93.0625 84.152344 C 92.785156 84.152344 92.578125 84.199219 92.441406 84.296875 C 92.304688 84.394531 92.21875 84.570312 92.183594 84.820312 C 91.9375 84.710938 91.675781 84.65625 91.40625 84.660156 C 91.003906 84.660156 90.664062 84.78125 90.382812 85.019531 C 90.105469 85.261719 89.964844 85.570312 89.964844 85.945312 C 89.964844 86.351562 90.128906 86.683594 90.457031 86.949219 C 90.105469 87.105469 89.929688 87.332031 89.929688 87.625 C 89.929688 87.871094 90.054688 88.074219 90.300781 88.238281 C 89.914062 88.375 89.722656 88.628906 89.722656 88.996094 C 89.722656 89.296875 89.859375 89.539062 90.136719 89.722656 C 90.414062 89.902344 90.851562 89.996094 91.453125 89.996094 C 92.722656 89.996094 93.359375 89.632812 93.359375 88.910156 C 93.359375 88.679688 93.285156 88.484375 93.144531 88.328125 C 93.007812 88.171875 92.828125 88.0625 92.625 88.019531 C 92.421875 87.972656 92.101562 87.941406 91.667969 87.929688 C 91.164062 87.917969 90.839844 87.890625 90.703125 87.84375 C 90.566406 87.800781 90.496094 87.703125 90.496094 87.550781 C 90.496094 87.445312 90.546875 87.359375 90.640625 87.292969 C 90.734375 87.226562 90.816406 87.195312 90.882812 87.195312 C 90.917969 87.195312 91.003906 87.207031 91.140625 87.234375 C 91.210938 87.25 91.296875 87.257812 91.398438 87.257812 C 91.839844 87.257812 92.195312 87.132812 92.457031 86.882812 C 92.71875 86.636719 92.847656 86.335938 92.847656 85.988281 C 92.847656 85.660156 92.726562 85.351562 92.484375 85.070312 C 92.515625 84.90625 92.574219 84.796875 92.664062 84.730469 C 92.757812 84.667969 92.9375 84.636719 93.207031 84.636719 L 93.207031 84.160156 C 93.160156 84.15625 93.109375 84.152344 93.0625 84.152344 Z M 91.621094 88.464844 C 91.964844 88.472656 92.207031 88.488281 92.34375 88.507812 C 92.484375 88.527344 92.59375 88.574219 92.671875 88.648438 C 92.75 88.722656 92.792969 88.828125 92.789062 88.933594 C 92.789062 89.152344 92.65625 89.304688 92.386719 89.394531 C 92.117188 89.484375 91.824219 89.53125 91.5 89.53125 C 91.148438 89.53125 90.863281 89.476562 90.636719 89.375 C 90.414062 89.265625 90.300781 89.121094 90.300781 88.929688 C 90.300781 88.703125 90.4375 88.53125 90.710938 88.410156 C 90.910156 88.433594 91.210938 88.453125 91.621094 88.464844 Z M 97.027344 88.558594 L 96.441406 88.558594 L 96.441406 86.265625 C 96.441406 85.996094 96.421875 85.796875 96.390625 85.660156 C 96.351562 85.519531 96.265625 85.394531 96.148438 85.3125 C 96.023438 85.210938 95.871094 85.160156 95.710938 85.164062 C 95.40625 85.164062 95.15625 85.285156 94.949219 85.53125 C 94.746094 85.777344 94.644531 86.105469 94.644531 86.515625 L 94.644531 88.5625 L 94.054688 88.5625 L 94.054688 83.421875 L 94.644531 83.421875 L 94.644531 85.464844 C 94.914062 84.929688 95.296875 84.664062 95.792969 84.664062 C 96.015625 84.664062 96.214844 84.707031 96.390625 84.796875 C 96.566406 84.882812 96.695312 84.996094 96.789062 85.140625 C 96.882812 85.285156 96.945312 85.425781 96.980469 85.5625 C 97.015625 85.703125 97.027344 85.933594 97.027344 86.261719 Z M 99.804688 88.140625 L 99.804688 88.617188 C 99.625 88.644531 99.445312 88.660156 99.265625 88.664062 C 98.539062 88.664062 98.171875 88.277344 98.171875 87.511719 L 98.171875 85.21875 L 97.5 85.21875 L 97.5 84.765625 L 98.171875 84.765625 L 98.195312 83.8125 L 98.761719 83.757812 L 98.761719 84.765625 L 99.59375 84.765625 L 99.59375 85.21875 L 98.761719 85.21875 L 98.761719 87.601562 C 98.761719 87.992188 98.960938 88.1875 99.359375 88.1875 C 99.488281 88.1875 99.640625 88.171875 99.804688 88.140625 Z M 100.648438 87.714844 L 101.496094 87.714844 L 101.496094 88.558594 L 100.648438 88.558594 Z M 100.917969 83.933594 L 100.917969 84.039062 L 100.621094 84.039062 L 100.621094 84.808594 L 100.503906 84.808594 L 100.503906 84.039062 L 100.210938 84.039062 L 100.210938 83.933594 Z M 101.105469 83.933594 L 101.273438 83.933594 L 101.523438 84.671875 L 101.773438 83.933594 L 101.941406 83.933594 L 101.941406 84.808594 L 101.832031 84.808594 L 101.832031 84.292969 C 101.832031 84.273438 101.832031 84.246094 101.832031 84.207031 C 101.832031 84.164062 101.832031 84.117188 101.832031 84.070312 L 101.582031 84.808594 L 101.46875 84.808594 L 101.214844 84.070312 L 101.214844 84.097656 C 101.214844 84.117188 101.21875 84.152344 101.21875 84.195312 C 101.21875 84.238281 101.21875 84.273438 101.21875 84.292969 L 101.21875 84.808594 L 101.105469 84.808594 Z M 15.703125 67.402344 L 9.738281 67.402344 L 9.738281 69.953125 L 14.449219 69.953125 L 14.449219 72.332031 L 9.738281 72.332031 L 9.738281 75.019531 L 15.703125 75.019531 L 15.703125 77.503906 L 6.773438 77.503906 L 6.773438 65.027344 L 15.703125 65.027344 Z M 25 68.277344 L 22.335938 72.539062 L 25.453125 77.503906 L 22.347656 77.503906 L 20.429688 74.339844 L 18.53125 77.503906 L 16.207031 77.503906 L 19.261719 72.519531 L 16.628906 68.277344 L 19.734375 68.277344 L 21.21875 70.738281 L 22.675781 68.277344 Z M 53.992188 68.277344 L 56.714844 68.277344 L 56.714844 77.503906 L 53.992188 77.503906 Z M 53.992188 65.007812 L 56.714844 65.007812 L 56.714844 67.453125 L 53.992188 67.453125 Z M 78.34375 74.023438 C 78.242188 75.125 77.808594 76.015625 77.050781 76.695312 C 76.289062 77.371094 75.308594 77.710938 74.109375 77.710938 C 72.804688 77.710938 71.742188 77.277344 70.921875 76.410156 C 70.101562 75.542969 69.691406 74.382812 69.691406 72.925781 C 69.691406 71.472656 70.113281 70.296875 70.949219 69.390625 C 71.789062 68.484375 72.90625 68.03125 74.3125 68.03125 C 75.4375 68.03125 76.375 68.375 77.113281 69.058594 C 77.855469 69.742188 78.265625 70.597656 78.347656 71.625 L 75.832031 71.769531 C 75.746094 70.652344 75.265625 70.09375 74.382812 70.09375 C 73.304688 70.09375 72.761719 70.980469 72.761719 72.753906 C 72.761719 73.933594 72.914062 74.679688 73.214844 75 C 73.519531 75.316406 73.886719 75.476562 74.320312 75.476562 C 75.164062 75.476562 75.667969 74.941406 75.832031 73.867188 Z M 28.648438 72.066406 C 28.648438 71.285156 28.796875 70.734375 29.097656 70.410156 C 29.394531 70.082031 29.726562 69.917969 30.097656 69.917969 C 31.0625 69.917969 31.542969 70.839844 31.542969 72.675781 C 31.542969 73.984375 31.398438 74.832031 31.105469 75.214844 C 30.8125 75.597656 30.476562 75.789062 30.105469 75.789062 C 29.804688 75.789062 29.527344 75.691406 29.269531 75.492188 C 29.015625 75.289062 28.847656 75.066406 28.765625 74.8125 C 28.6875 74.5625 28.648438 74.105469 28.648438 73.449219 Z M 28.648438 80.613281 L 28.648438 76.488281 C 29.09375 77.304688 29.839844 77.710938 30.882812 77.710938 C 31.917969 77.710938 32.757812 77.296875 33.402344 76.464844 C 34.046875 75.632812 34.371094 74.398438 34.371094 72.761719 C 34.371094 71.222656 34.050781 70.050781 33.410156 69.242188 C 32.773438 68.4375 31.953125 68.03125 30.949219 68.03125 C 29.785156 68.03125 28.972656 68.550781 28.507812 69.578125 L 28.507812 68.277344 L 25.996094 68.277344 L 25.996094 80.613281 Z M 42.609375 69.300781 C 41.761719 68.457031 40.738281 68.03125 39.550781 68.03125 C 38.234375 68.03125 37.15625 68.488281 36.316406 69.394531 C 35.476562 70.300781 35.058594 71.496094 35.058594 72.972656 C 35.058594 73.964844 35.265625 74.820312 35.683594 75.53125 C 36.101562 76.242188 36.632812 76.785156 37.277344 77.15625 C 37.917969 77.527344 38.699219 77.710938 39.621094 77.710938 C 41.726562 77.710938 43.128906 76.644531 43.816406 74.507812 L 41.339844 74.324219 C 41.15625 75.277344 40.617188 75.753906 39.71875 75.753906 C 39.253906 75.761719 38.804688 75.582031 38.476562 75.257812 C 38.128906 74.921875 37.953125 74.425781 37.953125 73.769531 C 37.953125 73.648438 37.957031 73.507812 37.964844 73.34375 L 43.886719 73.34375 C 43.886719 71.492188 43.460938 70.144531 42.609375 69.300781 Z M 39.636719 69.816406 C 40.570312 69.816406 41.082031 70.457031 41.164062 71.738281 L 37.957031 71.738281 C 38.074219 70.457031 38.636719 69.816406 39.636719 69.816406 Z M 50.3125 65.027344 L 50.3125 69.195312 C 49.78125 68.421875 49.023438 68.03125 48.039062 68.03125 C 46.921875 68.03125 46.066406 68.472656 45.476562 69.34375 C 44.886719 70.21875 44.589844 71.429688 44.589844 72.972656 C 44.589844 74.457031 44.886719 75.617188 45.480469 76.457031 C 46.070312 77.292969 46.878906 77.710938 47.902344 77.710938 C 48.976562 77.710938 49.828125 77.15625 50.453125 76.050781 L 50.453125 77.503906 L 52.964844 77.503906 L 52.964844 65.027344 Z M 50.3125 73.84375 C 50.3125 74.457031 50.171875 74.929688 49.886719 75.257812 C 49.601562 75.589844 49.273438 75.753906 48.894531 75.753906 C 47.910156 75.753906 47.417969 74.839844 47.417969 73.007812 C 47.417969 70.949219 47.945312 69.917969 48.996094 69.917969 C 49.875 69.917969 50.3125 70.648438 50.3125 72.105469 Z M 65.90625 75.765625 L 65.90625 71.558594 C 65.90625 70.746094 65.847656 70.175781 65.738281 69.847656 C 65.628906 69.519531 65.421875 69.207031 65.113281 68.914062 C 64.804688 68.621094 64.371094 68.402344 63.820312 68.253906 C 63.246094 68.101562 62.652344 68.027344 62.054688 68.03125 C 61.015625 68.03125 60.082031 68.253906 59.253906 68.695312 C 58.433594 69.136719 57.9375 69.886719 57.773438 70.9375 L 60.285156 71.179688 C 60.394531 70.269531 60.917969 69.816406 61.859375 69.816406 C 62.742188 69.816406 63.179688 70.265625 63.179688 71.167969 L 63.179688 71.703125 C 61.375 71.835938 60.128906 72.042969 59.441406 72.324219 C 58.761719 72.605469 58.265625 72.992188 57.957031 73.480469 C 57.652344 73.964844 57.488281 74.523438 57.492188 75.09375 C 57.492188 75.890625 57.757812 76.53125 58.285156 77.003906 C 58.8125 77.476562 59.507812 77.710938 60.363281 77.710938 C 60.941406 77.710938 61.460938 77.601562 61.914062 77.386719 C 62.371094 77.167969 62.828125 76.726562 63.285156 76.0625 C 63.285156 76.660156 63.332031 77.140625 63.425781 77.503906 L 66.078125 77.503906 C 65.960938 77.152344 65.90625 76.574219 65.90625 75.765625 Z M 63.183594 73.933594 C 63.183594 74.519531 63.023438 75.007812 62.703125 75.402344 C 62.386719 75.800781 61.992188 76 61.523438 76 C 61.160156 76 60.882812 75.882812 60.6875 75.648438 C 60.488281 75.417969 60.386719 75.121094 60.390625 74.816406 C 60.390625 73.859375 61.320312 73.289062 63.183594 73.097656 Z M 68.289062 75.058594 C 68.671875 75.058594 68.992188 75.1875 69.25 75.453125 C 69.511719 75.714844 69.640625 76.035156 69.640625 76.410156 C 69.648438 76.769531 69.503906 77.113281 69.246094 77.363281 C 68.996094 77.621094 68.652344 77.765625 68.292969 77.761719 C 67.933594 77.765625 67.585938 77.621094 67.335938 77.363281 C 67.078125 77.113281 66.9375 76.769531 66.941406 76.410156 C 66.941406 76.027344 67.074219 75.707031 67.335938 75.445312 C 67.589844 75.191406 67.933594 75.050781 68.289062 75.058594 Z M 101.871094 77.503906 L 99.152344 77.503906 L 99.152344 72.34375 C 99.152344 71.617188 99.128906 71.144531 99.085938 70.925781 C 99.042969 70.707031 98.929688 70.527344 98.75 70.382812 C 98.566406 70.238281 98.316406 70.164062 97.996094 70.164062 C 97.695312 70.164062 97.386719 70.273438 97.074219 70.488281 C 96.757812 70.703125 96.601562 71.320312 96.601562 72.34375 L 96.601562 77.503906 L 93.882812 77.503906 L 93.882812 72.34375 C 93.882812 71.597656 93.847656 71.117188 93.78125 70.898438 C 93.71875 70.683594 93.585938 70.5 93.40625 70.367188 C 93.222656 70.230469 92.988281 70.164062 92.707031 70.164062 C 92.242188 70.164062 91.898438 70.316406 91.671875 70.613281 C 91.445312 70.910156 91.332031 71.488281 91.332031 72.34375 L 91.332031 77.503906 L 88.683594 77.503906 L 88.683594 68.277344 L 91.265625 68.277344 L 91.265625 69.613281 C 91.695312 68.558594 92.550781 68.03125 93.839844 68.03125 C 95.007812 68.03125 95.851562 68.558594 96.375 69.613281 C 96.886719 68.558594 97.785156 68.03125 99.0625 68.03125 C 99.675781 68.03125 100.199219 68.15625 100.640625 68.410156 C 101.082031 68.660156 101.398438 68.988281 101.585938 69.390625 C 101.777344 69.796875 101.871094 70.492188 101.871094 71.476562 Z M 81.074219 68.667969 C 80.453125 69.089844 79.949219 69.667969 79.609375 70.335938 C 79.25 71.027344 79.074219 71.867188 79.074219 72.851562 C 79.074219 74.277344 79.46875 75.441406 80.257812 76.347656 C 81.042969 77.257812 82.09375 77.710938 83.410156 77.710938 C 84.765625 77.710938 85.855469 77.253906 86.675781 76.335938 C 87.492188 75.417969 87.902344 74.273438 87.902344 72.898438 C 87.902344 71.507812 87.507812 70.347656 86.71875 69.421875 C 85.929688 68.496094 84.835938 68.03125 83.429688 68.03125 C 82.480469 68.03125 81.695312 68.242188 81.074219 68.667969 Z M 84.632812 70.464844 C 84.882812 70.898438 85.007812 71.71875 85.007812 72.933594 C 85.007812 74.074219 84.867188 74.847656 84.585938 75.25 C 84.304688 75.65625 83.9375 75.859375 83.484375 75.859375 C 82.964844 75.859375 82.582031 75.621094 82.339844 75.144531 C 82.09375 74.671875 81.972656 73.886719 81.972656 72.796875 C 81.972656 71.605469 82.097656 70.8125 82.355469 70.414062 C 82.613281 70.015625 82.996094 69.816406 83.503906 69.816406 C 84.011719 69.816406 84.386719 70.03125 84.632812 70.464844 Z M 105.148438 69.632812 C 105.148438 70.351562 104.5625 70.9375 103.84375 70.9375 C 103.140625 70.917969 102.578125 70.339844 102.578125 69.632812 C 102.578125 68.929688 103.140625 68.351562 103.84375 68.328125 C 104.203125 68.328125 104.53125 68.476562 104.765625 68.710938 C 105 68.945312 105.148438 69.273438 105.148438 69.632812 Z M 104.820312 69.632812 C 104.820312 69.363281 104.710938 69.117188 104.535156 68.941406 C 104.351562 68.757812 104.105469 68.652344 103.84375 68.652344 C 103.585938 68.652344 103.335938 68.757812 103.15625 68.941406 C 102.972656 69.125 102.867188 69.375 102.867188 69.632812 C 102.867188 69.90625 102.976562 70.148438 103.15625 70.328125 C 103.332031 70.503906 103.574219 70.613281 103.84375 70.613281 C 104.382812 70.613281 104.820312 70.171875 104.820312 69.632812 Z M 104.121094 69.703125 L 104.324219 70.1875 L 104.351562 70.246094 L 104.109375 70.246094 L 104.101562 70.21875 L 103.902344 69.753906 L 103.648438 69.753906 L 103.648438 70.242188 L 103.433594 70.242188 L 103.433594 69.035156 L 103.917969 69.035156 C 103.984375 69.035156 104.042969 69.042969 104.089844 69.0625 C 104.140625 69.078125 104.183594 69.105469 104.21875 69.144531 C 104.304688 69.238281 104.335938 69.367188 104.300781 69.488281 C 104.292969 69.519531 104.277344 69.554688 104.261719 69.582031 C 104.242188 69.617188 104.214844 69.644531 104.183594 69.664062 C 104.164062 69.679688 104.140625 69.691406 104.121094 69.703125 Z M 103.648438 69.238281 L 103.648438 69.558594 L 103.902344 69.558594 C 103.933594 69.558594 103.960938 69.554688 103.992188 69.542969 C 104.011719 69.539062 104.03125 69.523438 104.046875 69.507812 C 104.0625 69.492188 104.074219 69.476562 104.082031 69.453125 C 104.089844 69.433594 104.09375 69.410156 104.09375 69.386719 C 104.09375 69.363281 104.089844 69.34375 104.082031 69.324219 C 104.074219 69.308594 104.0625 69.292969 104.046875 69.28125 C 104.011719 69.253906 103.964844 69.238281 103.917969 69.238281 Z M 103.648438 69.238281 "/>
</g>
</svg>
