<?xml version="1.0" encoding="UTF-8"?>
<svg xmlns="http://www.w3.org/2000/svg" xmlns:xlink="http://www.w3.org/1999/xlink" width="135px" height="99px" viewBox="0 0 135 99" version="1.1">
<g id="surface1">
<path style=" stroke:none;fill-rule:nonzero;fill:rgb(9.803922%,11.764706%,23.137255%);fill-opacity:1;" d="M 39.804688 40.066406 C 39.164062 40.066406 38.648438 40.582031 38.648438 41.226562 L 38.648438 55.386719 C 38.648438 56.027344 39.164062 56.546875 39.804688 56.546875 L 48.683594 56.546875 C 48.851562 56.546875 48.984375 56.410156 48.984375 56.242188 L 48.984375 54.617188 C 48.984375 54.449219 48.851562 54.3125 48.683594 54.3125 L 41.132812 54.3125 L 41.132812 49.136719 L 47.921875 49.136719 C 48.089844 49.136719 48.226562 49 48.226562 48.832031 L 48.226562 47.296875 C 48.226562 47.128906 48.089844 46.992188 47.921875 46.992188 L 41.132812 46.992188 L 41.132812 42.246094 L 48.683594 42.246094 C 48.851562 42.246094 48.984375 42.109375 48.984375 41.941406 L 48.984375 40.367188 C 48.984375 40.199219 48.851562 40.066406 48.683594 40.066406 Z M 39.804688 40.066406 "/>
<path style=" stroke:none;fill-rule:nonzero;fill:rgb(9.803922%,11.764706%,23.137255%);fill-opacity:1;" d="M 69.773438 44.191406 C 67.660156 44.191406 66.351562 44.921875 65.472656 46.132812 L 65.472656 44.867188 C 65.472656 44.699219 65.335938 44.5625 65.167969 44.5625 L 63.339844 44.5625 C 63.171875 44.5625 63.039062 44.699219 63.039062 44.867188 L 63.039062 60.324219 C 63.039062 60.492188 63.171875 60.628906 63.339844 60.628906 L 65.199219 60.628906 C 65.367188 60.628906 65.503906 60.492188 65.503906 60.324219 L 65.503906 55.035156 C 66.316406 56.210938 67.636719 56.910156 69.773438 56.910156 C 73.363281 56.910156 75.601562 54.058594 75.601562 50.546875 C 75.601562 47.035156 73.410156 44.191406 69.773438 44.191406 Z M 69.253906 46.234375 C 71.835938 46.234375 73.109375 48.164062 73.109375 50.546875 C 73.109375 52.925781 71.835938 54.855469 69.253906 54.855469 C 66.667969 54.855469 65.398438 52.925781 65.398438 50.546875 C 65.398438 48.164062 66.667969 46.234375 69.253906 46.234375 Z M 69.253906 46.234375 "/>
<path style=" stroke:none;fill-rule:nonzero;fill:rgb(9.803922%,11.764706%,23.137255%);fill-opacity:1;" d="M 105.84375 44.5625 L 107.679688 44.5625 C 107.847656 44.5625 107.984375 44.699219 107.984375 44.867188 L 107.984375 56.242188 C 107.984375 56.410156 107.847656 56.546875 107.679688 56.546875 L 105.84375 56.546875 C 105.675781 56.546875 105.539062 56.410156 105.539062 56.242188 L 105.539062 44.867188 C 105.539062 44.699219 105.675781 44.5625 105.84375 44.5625 Z M 105.84375 44.5625 "/>
<path style=" stroke:none;fill-rule:nonzero;fill:rgb(9.803922%,11.764706%,23.137255%);fill-opacity:1;" d="M 105.816406 40.058594 L 107.707031 40.058594 C 107.875 40.058594 108.011719 40.195312 108.011719 40.363281 L 108.011719 42.261719 C 108.011719 42.429688 107.875 42.5625 107.707031 42.5625 L 105.816406 42.5625 C 105.648438 42.5625 105.515625 42.429688 105.515625 42.261719 L 105.515625 40.363281 C 105.515625 40.195312 105.648438 40.058594 105.816406 40.058594 Z M 105.816406 40.058594 "/>
<path style=" stroke:none;fill-rule:nonzero;fill:rgb(9.803922%,11.764706%,23.137255%);fill-opacity:1;" d="M 96.171875 56.910156 C 98.285156 56.910156 99.597656 56.179688 100.472656 54.964844 L 100.472656 56.242188 C 100.472656 56.410156 100.609375 56.542969 100.777344 56.542969 L 102.605469 56.542969 C 102.773438 56.542969 102.90625 56.410156 102.90625 56.242188 L 102.90625 40.367188 C 102.90625 40.199219 102.773438 40.066406 102.605469 40.066406 L 100.746094 40.066406 C 100.578125 40.066406 100.441406 40.199219 100.441406 40.367188 L 100.441406 46.132812 C 99.566406 44.984375 98.308594 44.191406 96.171875 44.191406 C 92.582031 44.191406 90.34375 47.042969 90.34375 50.554688 C 90.34375 54.066406 92.535156 56.910156 96.171875 56.910156 Z M 96.695312 54.863281 C 94.109375 54.863281 92.839844 52.933594 92.839844 50.554688 C 92.839844 48.171875 94.109375 46.242188 96.695312 46.242188 C 99.277344 46.242188 100.546875 48.171875 100.546875 50.554688 C 100.546875 52.933594 99.277344 54.863281 96.695312 54.863281 Z M 96.695312 54.863281 "/>
<path style=" stroke:none;fill-rule:nonzero;fill:rgb(9.803922%,11.764706%,23.137255%);fill-opacity:1;" d="M 115.910156 44.199219 C 112.273438 44.199219 110.085938 47.042969 110.085938 50.554688 C 110.085938 54.066406 112.273438 56.910156 115.910156 56.910156 C 118.023438 56.910156 119.335938 56.179688 120.214844 54.964844 L 120.214844 56.242188 C 120.214844 56.410156 120.347656 56.542969 120.515625 56.542969 L 122.34375 56.542969 C 122.511719 56.542969 122.648438 56.410156 122.648438 56.242188 L 122.648438 44.867188 C 122.648438 44.699219 122.511719 44.5625 122.34375 44.5625 L 120.515625 44.5625 C 120.347656 44.5625 120.214844 44.699219 120.214844 44.867188 L 120.214844 46.140625 C 119.335938 44.929688 118.023438 44.199219 115.910156 44.199219 Z M 116.433594 46.242188 C 119.015625 46.242188 120.289062 48.171875 120.289062 50.554688 C 120.289062 52.933594 119.015625 54.863281 116.433594 54.863281 C 113.851562 54.863281 112.578125 52.933594 112.578125 50.554688 C 112.578125 48.171875 113.851562 46.242188 116.433594 46.242188 Z M 116.433594 46.242188 "/>
<path style=" stroke:none;fill-rule:nonzero;fill:rgb(9.803922%,11.764706%,23.137255%);fill-opacity:1;" d="M 50.941406 44.5625 C 50.679688 44.5625 50.636719 44.769531 50.753906 44.933594 L 54.644531 50.277344 L 50.375 56.171875 C 50.253906 56.335938 50.300781 56.542969 50.5625 56.542969 L 52.671875 56.542969 C 52.851562 56.542969 52.949219 56.480469 53.007812 56.390625 L 55.917969 52.085938 L 58.949219 56.390625 C 59.011719 56.480469 59.105469 56.542969 59.285156 56.542969 L 61.472656 56.542969 C 61.734375 56.542969 61.78125 56.335938 61.664062 56.171875 L 57.367188 50.277344 L 61.234375 44.933594 C 61.355469 44.769531 61.308594 44.5625 61.046875 44.5625 L 58.980469 44.5625 C 58.796875 44.5625 58.703125 44.625 58.640625 44.714844 L 56.089844 48.480469 L 53.449219 44.714844 C 53.386719 44.625 53.296875 44.5625 53.113281 44.5625 Z M 50.941406 44.5625 "/>
<path style=" stroke:none;fill-rule:nonzero;fill:rgb(9.803922%,11.764706%,23.137255%);fill-opacity:1;" d="M 82.980469 44.191406 C 79.320312 44.191406 77.117188 46.828125 77.117188 50.550781 C 77.117188 54.65625 79.722656 56.910156 82.980469 56.910156 C 86.914062 56.910156 88.464844 54.585938 88.554688 54.5 C 88.652344 54.398438 88.625 54.214844 88.542969 54.132812 L 87.402344 53.011719 C 87.320312 52.929688 87.160156 52.917969 87.050781 53.03125 C 86.96875 53.113281 85.582031 54.867188 83.3125 54.867188 C 80.902344 54.867188 79.714844 53.386719 79.554688 51.203125 L 88.542969 51.203125 C 88.820312 51.203125 88.835938 50.957031 88.835938 50.792969 C 88.855469 46.359375 86.285156 44.191406 82.980469 44.191406 Z M 82.988281 46.121094 C 85.199219 46.121094 86.125 47.453125 86.320312 49.355469 L 79.640625 49.355469 C 79.902344 47.492188 80.878906 46.121094 82.988281 46.121094 Z M 82.988281 46.121094 "/>
<path style=" stroke:none;fill-rule:nonzero;fill:rgb(99.215686%,85.882353%,19.607843%);fill-opacity:1;" d="M 16.464844 38.371094 L 28.074219 38.371094 C 30.355469 38.371094 32.1875 40.210938 32.1875 42.496094 L 32.1875 54.140625 C 32.1875 56.425781 30.355469 58.265625 28.074219 58.265625 L 16.464844 58.265625 C 14.1875 58.265625 12.351562 56.425781 12.351562 54.140625 L 12.351562 42.496094 C 12.351562 40.210938 14.1875 38.371094 16.464844 38.371094 Z M 16.464844 38.371094 "/>
<path style=" stroke:none;fill-rule:nonzero;fill:rgb(9.803922%,11.764706%,23.137255%);fill-opacity:1;" d="M 17.898438 41.933594 C 17.714844 41.933594 17.597656 41.976562 17.5 42.074219 L 15.519531 44.0625 C 15.480469 44.097656 15.460938 44.148438 15.460938 44.203125 C 15.460938 44.3125 15.550781 44.398438 15.65625 44.398438 L 24.25 44.398438 L 18.96875 49.695312 C 18.863281 49.800781 18.804688 49.863281 18.804688 50.066406 L 18.804688 51.460938 C 18.804688 51.546875 18.839844 51.617188 18.894531 51.671875 C 18.949219 51.730469 19.023438 51.765625 19.109375 51.765625 L 20.5 51.765625 C 20.703125 51.765625 20.761719 51.707031 20.867188 51.601562 L 26.148438 46.304688 L 26.148438 54.921875 C 26.148438 55.03125 26.238281 55.117188 26.34375 55.117188 C 26.398438 55.117188 26.449219 55.097656 26.484375 55.058594 L 28.464844 53.074219 C 28.5625 52.972656 28.605469 52.859375 28.605469 52.671875 L 28.605469 43.261719 C 28.605469 42.527344 28.015625 41.933594 27.28125 41.933594 Z M 17.898438 41.933594 "/>
<path style=" stroke:none;fill-rule:nonzero;fill:rgb(9.803922%,11.764706%,23.137255%);fill-opacity:1;" d="M 16.214844 52.152344 L 18.125 52.152344 C 18.28125 52.152344 18.410156 52.28125 18.410156 52.441406 L 18.410156 54.367188 C 18.410156 54.527344 18.28125 54.65625 18.125 54.65625 L 16.214844 54.65625 C 16.058594 54.65625 15.929688 54.527344 15.929688 54.367188 L 15.929688 52.441406 C 15.929688 52.28125 16.058594 52.152344 16.214844 52.152344 Z M 16.214844 52.152344 "/>
</g>
</svg>
