<?xml version="1.0" encoding="UTF-8"?>
<svg xmlns="http://www.w3.org/2000/svg" xmlns:xlink="http://www.w3.org/1999/xlink" width="133px" height="100px" viewBox="0 0 133 100" version="1.1">
<g id="surface1">
<path style=" stroke:none;fill-rule:nonzero;fill:rgb(0%,0%,0%);fill-opacity:1;" d="M 19.019531 49.761719 C 18.929688 48.539062 17.910156 47.605469 16.691406 47.652344 C 15.382812 47.671875 14.34375 48.761719 14.363281 50.074219 C 14.363281 51.539062 15.382812 52.585938 17.113281 52.585938 L 20.394531 52.585938 C 19.59375 53.828125 18.199219 54.585938 16.714844 54.585938 C 14.253906 54.585938 12.257812 52.585938 12.257812 50.117188 C 12.257812 47.652344 14.253906 45.652344 16.714844 45.652344 C 19.175781 45.652344 21.167969 47.652344 21.167969 50.117188 C 21.167969 50.585938 21.082031 51.050781 20.949219 51.519531 L 15.980469 51.519531 L 15.980469 51.007812 L 17.734375 50.960938 C 18.621094 50.917969 19.019531 50.472656 19.019531 49.761719 "/>
<path style=" stroke:none;fill-rule:nonzero;fill:rgb(0%,0%,0%);fill-opacity:1;" d="M 24.871094 48.398438 L 26.578125 45.910156 L 28.925781 45.910156 L 26.046875 49.957031 L 29.171875 54.3125 L 26.6875 54.3125 L 24.828125 51.601562 L 22.941406 54.3125 L 20.570312 54.3125 L 23.628906 50.066406 L 20.660156 45.933594 L 23.140625 45.933594 Z M 24.871094 48.398438 "/>
<path style=" stroke:none;fill-rule:nonzero;fill:rgb(0%,0%,0%);fill-opacity:1;" d="M 31.632812 57.753906 L 29.480469 57.753906 L 29.480469 45.910156 L 31.652344 45.910156 L 31.652344 47.535156 C 31.652344 47.578125 31.675781 47.601562 31.699219 47.601562 C 31.71875 47.601562 31.742188 47.578125 31.742188 47.554688 C 32.230469 46.421875 33.339844 45.667969 34.578125 45.667969 C 35.601562 45.667969 36.574219 46.109375 37.261719 46.867188 C 37.640625 47.265625 37.925781 47.753906 38.125 48.265625 C 38.347656 48.84375 38.460938 49.464844 38.4375 50.109375 C 38.4375 50.734375 38.324219 51.355469 38.125 51.957031 C 37.925781 52.464844 37.640625 52.957031 37.285156 53.355469 C 36.597656 54.109375 35.621094 54.554688 34.601562 54.554688 C 33.359375 54.554688 32.253906 53.820312 31.765625 52.667969 C 31.742188 52.644531 31.71875 52.621094 31.71875 52.621094 C 31.699219 52.621094 31.675781 52.644531 31.675781 52.6875 L 31.675781 57.753906 Z M 33.960938 47.464844 C 33.339844 47.464844 32.738281 47.734375 32.320312 48.199219 C 31.851562 48.710938 31.585938 49.398438 31.609375 50.089844 C 31.609375 50.800781 31.851562 51.464844 32.320312 51.976562 C 32.738281 52.445312 33.339844 52.710938 33.960938 52.734375 C 34.601562 52.734375 35.199219 52.464844 35.621094 51.976562 C 36.085938 51.464844 36.332031 50.777344 36.332031 50.089844 C 36.351562 49.398438 36.085938 48.710938 35.621094 48.199219 C 35.199219 47.734375 34.601562 47.464844 33.960938 47.464844 Z M 33.960938 47.464844 "/>
<path style=" stroke:none;fill-rule:nonzero;fill:rgb(0%,0%,0%);fill-opacity:1;" d="M 45.886719 49.753906 C 45.796875 48.535156 44.777344 47.601562 43.558594 47.644531 C 42.25 47.667969 41.207031 48.753906 41.230469 50.066406 C 41.230469 51.535156 42.25 52.578125 43.980469 52.578125 L 47.257812 52.578125 C 46.460938 53.820312 45.066406 54.578125 43.578125 54.578125 C 41.121094 54.578125 39.125 52.578125 39.125 50.109375 C 39.125 47.644531 41.121094 45.644531 43.578125 45.644531 C 46.039062 45.644531 48.035156 47.644531 48.035156 50.109375 C 48.035156 50.578125 47.945312 51.042969 47.8125 51.511719 L 42.847656 51.511719 L 42.847656 51.023438 L 44.597656 50.976562 C 45.484375 50.933594 45.886719 50.464844 45.886719 49.753906 "/>
<path style=" stroke:none;fill-rule:nonzero;fill:rgb(0%,0%,0%);fill-opacity:1;" d="M 52.601562 54.535156 C 51.582031 54.535156 50.605469 54.089844 49.917969 53.332031 C 49.542969 52.933594 49.253906 52.445312 49.054688 51.933594 C 48.832031 51.355469 48.722656 50.734375 48.746094 50.089844 C 48.746094 49.464844 48.855469 48.84375 49.054688 48.246094 C 49.253906 47.734375 49.542969 47.246094 49.917969 46.84375 C 50.605469 46.089844 51.582031 45.644531 52.601562 45.644531 C 53.84375 45.644531 54.949219 46.378906 55.4375 47.535156 C 55.460938 47.554688 55.484375 47.578125 55.484375 47.578125 C 55.503906 47.578125 55.527344 47.554688 55.527344 47.511719 L 55.527344 42.246094 L 57.699219 42.246094 L 57.699219 54.265625 L 55.527344 54.265625 L 55.527344 52.667969 C 55.527344 52.621094 55.503906 52.601562 55.484375 52.601562 C 55.460938 52.601562 55.4375 52.621094 55.4375 52.644531 C 54.949219 53.800781 53.820312 54.535156 52.601562 54.535156 Z M 53.179688 47.464844 C 52.535156 47.464844 51.9375 47.734375 51.515625 48.222656 C 51.050781 48.734375 50.804688 49.421875 50.804688 50.109375 C 50.785156 50.800781 51.050781 51.488281 51.515625 52 C 51.9375 52.464844 52.535156 52.734375 53.179688 52.753906 C 53.796875 52.753906 54.398438 52.464844 54.816406 52 C 55.285156 51.488281 55.550781 50.800781 55.527344 50.109375 C 55.527344 49.398438 55.285156 48.734375 54.816406 48.222656 C 54.417969 47.753906 53.820312 47.464844 53.179688 47.464844 Z M 53.179688 47.464844 "/>
<path style=" stroke:none;fill-rule:nonzero;fill:rgb(0%,0%,0%);fill-opacity:1;" d="M 61.402344 54.3125 L 59.230469 54.3125 L 59.230469 45.910156 L 61.402344 45.910156 Z M 60.316406 44.734375 C 59.628906 44.734375 59.050781 44.15625 59.050781 43.464844 C 59.050781 42.777344 59.628906 42.199219 60.316406 42.199219 C 61.003906 42.199219 61.578125 42.777344 61.578125 43.464844 C 61.578125 44.15625 61.003906 44.734375 60.316406 44.734375 Z M 60.316406 44.734375 "/>
<path style=" stroke:none;fill-rule:nonzero;fill:rgb(0%,0%,0%);fill-opacity:1;" d="M 66.34375 54.535156 C 65.324219 54.535156 64.351562 54.089844 63.664062 53.332031 C 63.285156 52.933594 62.996094 52.445312 62.796875 51.933594 C 62.578125 51.355469 62.464844 50.734375 62.488281 50.089844 C 62.488281 49.464844 62.597656 48.84375 62.796875 48.246094 C 62.996094 47.734375 63.285156 47.246094 63.664062 46.84375 C 64.351562 46.089844 65.324219 45.644531 66.34375 45.644531 C 67.585938 45.644531 68.695312 46.378906 69.183594 47.535156 C 69.203125 47.554688 69.226562 47.578125 69.226562 47.578125 C 69.25 47.578125 69.269531 47.554688 69.269531 47.511719 L 69.269531 45.890625 L 71.441406 45.890625 L 71.441406 54.289062 L 69.269531 54.289062 L 69.269531 52.667969 C 69.269531 52.621094 69.25 52.601562 69.226562 52.601562 C 69.203125 52.601562 69.183594 52.621094 69.183594 52.644531 C 68.695312 53.800781 67.585938 54.535156 66.34375 54.535156 Z M 66.941406 47.464844 C 66.324219 47.464844 65.703125 47.734375 65.28125 48.199219 C 64.816406 48.710938 64.570312 49.398438 64.570312 50.089844 C 64.550781 50.777344 64.816406 51.464844 65.28125 51.976562 C 65.703125 52.445312 66.300781 52.710938 66.941406 52.734375 C 67.5625 52.734375 68.164062 52.445312 68.582031 51.976562 C 69.050781 51.464844 69.316406 50.777344 69.292969 50.089844 C 69.292969 49.378906 69.050781 48.710938 68.582031 48.199219 C 68.164062 47.753906 67.5625 47.464844 66.941406 47.464844 Z M 66.941406 47.464844 "/>
<path style=" stroke:none;fill-rule:nonzero;fill:rgb(0%,0%,0%);fill-opacity:1;" d="M 80 57.957031 C 79.269531 57.957031 78.535156 57.820312 77.847656 57.578125 C 77.207031 57.332031 76.609375 56.976562 76.097656 56.511719 L 77.40625 55.089844 C 78.25 55.753906 78.933594 56.132812 79.976562 56.132812 C 80.640625 56.179688 81.285156 55.910156 81.707031 55.398438 C 82.082031 54.890625 82.261719 54.265625 82.238281 53.621094 L 82.238281 52.601562 C 82.238281 52.554688 82.214844 52.535156 82.195312 52.535156 C 82.171875 52.535156 82.148438 52.554688 82.148438 52.578125 C 81.683594 53.710938 80.574219 54.445312 79.355469 54.464844 C 78.335938 54.464844 77.382812 54.023438 76.695312 53.289062 C 76.320312 52.890625 76.03125 52.421875 75.855469 51.910156 C 75.632812 51.332031 75.542969 50.710938 75.542969 50.089844 C 75.542969 49.464844 75.65625 48.84375 75.855469 48.265625 C 76.054688 47.753906 76.320312 47.289062 76.695312 46.890625 C 77.382812 46.132812 78.335938 45.710938 79.355469 45.710938 C 80.574219 45.710938 81.683594 46.464844 82.148438 47.601562 C 82.171875 47.621094 82.195312 47.644531 82.195312 47.644531 C 82.214844 47.644531 82.238281 47.621094 82.238281 47.578125 L 82.238281 45.957031 L 84.410156 45.957031 L 84.410156 53.867188 C 84.433594 54.957031 84.011719 56.023438 83.257812 56.820312 C 82.4375 57.554688 81.308594 57.957031 80 57.957031 Z M 79.910156 47.464844 C 79.289062 47.464844 78.691406 47.734375 78.269531 48.199219 C 77.804688 48.710938 77.5625 49.378906 77.582031 50.066406 C 77.5625 50.753906 77.828125 51.421875 78.269531 51.933594 C 78.691406 52.398438 79.289062 52.667969 79.910156 52.667969 C 80.53125 52.667969 81.109375 52.398438 81.527344 51.933594 C 81.996094 51.421875 82.238281 50.753906 82.238281 50.066406 C 82.238281 49.378906 81.996094 48.710938 81.527344 48.199219 C 81.128906 47.734375 80.53125 47.464844 79.910156 47.464844 Z M 79.910156 47.464844 "/>
<path style=" stroke:none;fill-rule:nonzero;fill:rgb(0%,0%,0%);fill-opacity:1;" d="M 88.089844 45.910156 L 88.089844 47.734375 C 88.089844 47.777344 88.132812 47.777344 88.132812 47.734375 C 88.421875 46.222656 89.066406 45.667969 90.195312 45.667969 L 90.394531 45.667969 L 90.394531 47.957031 L 89.421875 47.957031 C 88.535156 47.957031 88.089844 48.644531 88.089844 49.621094 L 88.089844 54.3125 L 85.917969 54.3125 L 85.917969 45.910156 Z M 88.089844 45.910156 "/>
<path style=" stroke:none;fill-rule:nonzero;fill:rgb(0%,0%,0%);fill-opacity:1;" d="M 95.007812 54.578125 C 92.546875 54.601562 90.527344 52.621094 90.507812 50.15625 C 90.484375 47.6875 92.457031 45.667969 94.917969 45.644531 C 94.941406 45.644531 94.960938 45.644531 94.984375 45.644531 C 96.160156 45.644531 97.289062 46.109375 98.109375 46.957031 C 99.839844 48.6875 99.859375 51.511719 98.109375 53.265625 C 97.3125 54.109375 96.179688 54.578125 95.007812 54.578125 Z M 94.984375 47.601562 C 94.363281 47.601562 93.742188 47.867188 93.320312 48.3125 C 92.878906 48.800781 92.613281 49.421875 92.632812 50.089844 C 92.632812 50.753906 92.878906 51.378906 93.320312 51.867188 C 94.1875 52.800781 95.648438 52.820312 96.582031 51.957031 C 96.601562 51.933594 96.648438 51.890625 96.667969 51.867188 C 97.113281 51.378906 97.378906 50.753906 97.355469 50.089844 C 97.355469 49.421875 97.113281 48.800781 96.667969 48.3125 C 96.226562 47.867188 95.628906 47.601562 94.984375 47.601562 Z M 94.984375 47.601562 "/>
<path style=" stroke:none;fill-rule:nonzero;fill:rgb(0%,0%,0%);fill-opacity:1;" d="M 103.941406 54.578125 C 101.832031 54.578125 100.480469 53.289062 100.480469 51.421875 L 100.480469 45.910156 L 102.652344 45.910156 L 102.652344 51.246094 C 102.609375 51.957031 103.140625 52.578125 103.851562 52.621094 C 103.894531 52.621094 103.960938 52.621094 104.007812 52.621094 C 104.714844 52.621094 105.292969 52.066406 105.3125 51.355469 C 105.3125 51.332031 105.3125 51.289062 105.3125 51.265625 L 105.3125 45.910156 L 107.484375 45.910156 L 107.484375 51.421875 C 107.464844 53.289062 106 54.578125 103.941406 54.578125 "/>
<path style=" stroke:none;fill-rule:nonzero;fill:rgb(0%,0%,0%);fill-opacity:1;" d="M 111.121094 57.753906 L 108.949219 57.753906 L 108.949219 45.910156 L 111.121094 45.910156 L 111.121094 47.535156 C 111.121094 47.578125 111.144531 47.601562 111.164062 47.601562 C 111.1875 47.601562 111.210938 47.578125 111.210938 47.554688 C 111.699219 46.421875 112.804688 45.667969 114.046875 45.667969 C 115.066406 45.667969 116.042969 46.109375 116.730469 46.867188 C 117.105469 47.265625 117.394531 47.753906 117.59375 48.265625 C 117.816406 48.84375 117.925781 49.464844 117.90625 50.109375 C 117.90625 50.734375 117.792969 51.355469 117.59375 51.957031 C 117.394531 52.464844 117.105469 52.957031 116.75 53.355469 C 116.066406 54.109375 115.089844 54.554688 114.070312 54.554688 C 112.828125 54.554688 111.71875 53.820312 111.230469 52.667969 C 111.210938 52.644531 111.1875 52.621094 111.1875 52.621094 C 111.164062 52.621094 111.144531 52.644531 111.144531 52.6875 L 111.144531 57.753906 Z M 113.449219 47.464844 C 112.828125 47.464844 112.230469 47.734375 111.808594 48.199219 C 111.34375 48.710938 111.078125 49.398438 111.097656 50.089844 C 111.097656 50.800781 111.34375 51.464844 111.808594 51.976562 C 112.230469 52.445312 112.828125 52.710938 113.449219 52.734375 C 114.09375 52.734375 114.691406 52.464844 115.113281 51.976562 C 115.578125 51.464844 115.820312 50.777344 115.820312 50.089844 C 115.84375 49.398438 115.578125 48.710938 115.113281 48.199219 C 114.691406 47.734375 114.09375 47.464844 113.449219 47.464844 Z M 113.449219 47.464844 "/>
<path style=" stroke:none;fill-rule:nonzero;fill:rgb(0%,0%,0%);fill-opacity:1;" d="M 119.433594 45.933594 L 119.433594 46.15625 L 119.058594 46.15625 L 119.058594 47.199219 L 118.792969 47.199219 L 118.792969 46.15625 L 118.414062 46.15625 L 118.414062 45.933594 Z M 119.433594 45.933594 "/>
<path style=" stroke:none;fill-rule:nonzero;fill:rgb(0%,0%,0%);fill-opacity:1;" d="M 120.429688 45.933594 L 120.808594 45.933594 L 120.808594 47.199219 L 120.566406 47.199219 L 120.566406 46.355469 C 120.566406 46.332031 120.566406 46.289062 120.566406 46.246094 C 120.566406 46.199219 120.566406 46.15625 120.566406 46.132812 L 120.320312 47.179688 L 120.078125 47.179688 L 119.832031 46.132812 C 119.832031 46.15625 119.832031 46.199219 119.832031 46.246094 C 119.832031 46.289062 119.832031 46.332031 119.832031 46.355469 L 119.832031 47.199219 L 119.589844 47.199219 L 119.589844 45.933594 L 119.964844 45.933594 L 120.1875 46.910156 Z M 120.429688 45.933594 "/>
</g>
</svg>
