<?xml version="1.0" encoding="UTF-8"?>
<svg xmlns="http://www.w3.org/2000/svg" xmlns:xlink="http://www.w3.org/1999/xlink" width="200px" height="200px" viewBox="0 0 200 200" version="1.1">
<g id="surface1">
<rect x="0" y="0" width="200" height="200" style="fill:rgb(100%,100%,100%);fill-opacity:1;stroke:none;"/>
<path style=" stroke:none;fill-rule:evenodd;fill:rgb(0%,0%,0%);fill-opacity:1;" d="M 88.648438 74.613281 L 88.300781 76.3125 C 88.300781 76.3125 61.253906 72.273438 60.519531 53.300781 L 60.84375 53.300781 C 62.15625 72.484375 88.648438 74.613281 88.648438 74.613281 Z M 109.257812 72.132812 L 108.96875 70.761719 C 99.238281 71.019531 84.003906 71.515625 76.507812 68.5625 C 83.386719 72.25 94.816406 72.132812 109.257812 72.132812 Z M 63.871094 70.589844 C 63.871094 89.710938 79.347656 105.210938 98.441406 105.210938 C 117.535156 105.210938 133.011719 89.710938 133.011719 70.589844 C 133.011719 51.46875 117.535156 35.972656 98.441406 35.972656 C 85.296875 35.972656 73.867188 43.320312 68.019531 54.132812 C 71.097656 59.085938 80.804688 62.160156 92.414062 62.492188 C 94.042969 59.351562 100.9375 48.152344 105.464844 48.824219 C 109.253906 49.386719 109.085938 57.113281 108.6875 61.84375 C 109.699219 61.898438 110.285156 62.890625 110.390625 64.128906 C 110.453125 64.867188 110.363281 65.390625 110.363281 65.390625 C 118.902344 64.804688 122.613281 67.074219 122.34375 71.328125 C 122.097656 75.144531 115.707031 78.714844 104.664062 78.757812 C 105.203125 79.296875 105.554688 80.089844 105.589844 80.992188 C 105.648438 82.625 104.628906 83.992188 103.292969 84.09375 C 103.292969 84.09375 101.609375 84.101562 100.929688 84.097656 C 96.941406 89.898438 93.097656 96.496094 88.332031 95.152344 C 85.039062 94.222656 85.441406 86.03125 85.847656 81.390625 C 71.710938 79.390625 63.871094 70.589844 63.871094 70.589844 Z M 60.304688 71.574219 C 60.304688 69.78125 60.433594 68.015625 60.671875 66.289062 C 56.105469 59.207031 57.5625 49.546875 60.160156 46.039062 L 60.492188 46.039062 C 54.386719 58.222656 64.339844 75.203125 87.691406 78.652344 C 87.691406 78.652344 85.453125 93.65625 88.851562 94.082031 C 94.449219 94.773438 104.398438 75.574219 104.398438 75.574219 C 114.234375 76.191406 121.175781 73.484375 121.238281 71.144531 C 121.355469 66.695312 116.109375 66.777344 114.523438 66.566406 C 106.898438 65.574219 76.382812 75.265625 64.523438 56.992188 L 64.832031 56.992188 C 75.707031 72.988281 105.902344 65.796875 105.902344 65.796875 C 106.390625 63.917969 110.257812 50.316406 105.171875 49.710938 C 101.207031 49.238281 93.480469 64.65625 93.480469 64.65625 C 62.066406 63.945312 59.09375 44.835938 73.117188 37.796875 L 73.800781 37.796875 C 70.367188 39.554688 65.136719 44.871094 66.527344 50.8125 C 73.261719 40.609375 84.824219 33.878906 97.949219 33.878906 C 118.738281 33.878906 135.59375 50.757812 135.59375 71.574219 C 135.59375 92.394531 118.738281 109.273438 97.949219 109.273438 C 77.160156 109.273438 60.304688 92.394531 60.304688 71.574219 Z M 114.15625 72.179688 C 114.15625 72.179688 113.636719 72.1875 112.714844 72.183594 L 112.425781 70.800781 C 113.34375 70.804688 113.851562 70.804688 113.851562 70.804688 Z M 111.683594 72.164062 L 111.398438 70.785156 L 110.125 70.769531 L 110.414062 72.148438 Z M 110.476562 41.566406 C 112.078125 42.285156 113.59375 43.121094 115.019531 44.066406 L 113.921875 45.726562 C 112.671875 44.671875 111.347656 43.707031 109.960938 42.835938 Z M 117.210938 45.664062 L 115.800781 47.433594 C 125.082031 56.503906 128.886719 70.390625 124.570312 83.429688 L 126.199219 84.226562 C 126.609375 83.351562 126.984375 82.445312 127.324219 81.515625 C 132.125 68.296875 127.644531 53.957031 117.210938 45.664062 Z M 103.671875 83.296875 C 103.433594 83.304688 103.210938 83.179688 103.019531 82.960938 C 103.621094 82.863281 104.066406 82.074219 104.03125 81.136719 C 104.011719 80.65625 103.875 80.222656 103.660156 79.90625 L 104.007812 79.351562 C 104.410156 79.664062 104.707031 80.371094 104.734375 81.199219 C 104.773438 82.335938 104.296875 83.273438 103.671875 83.296875 Z M 108.84375 65.433594 C 109.132812 65.191406 109.316406 64.71875 109.300781 64.171875 C 109.273438 63.496094 108.9375 62.945312 108.515625 62.832031 C 108.617188 62.722656 108.757812 62.660156 108.902344 62.652344 C 109.390625 62.632812 109.816406 63.339844 109.84375 64.222656 C 109.859375 64.6875 109.765625 65.113281 109.601562 65.410156 Z M 105.894531 51.105469 C 106.089844 51.773438 106.175781 52.667969 106.1875 53.59375 C 106.21875 55.125 106.074219 56.75 105.984375 57.574219 C 105.859375 58.632812 105.722656 59.691406 105.574219 60.746094 C 105.433594 61.753906 105.289062 62.765625 105.140625 63.773438 C 105.574219 61.984375 105.976562 60.191406 106.34375 58.386719 C 107.363281 53.34375 106.308594 51.578125 105.894531 51.105469 Z M 92.535156 73.691406 C 94.386719 73.835938 98.617188 74.191406 100.058594 74.550781 C 100.859375 74.746094 101.339844 74.863281 101.5625 75.082031 C 101.8125 75.324219 101.753906 75.636719 101.441406 76.207031 C 101.375 76.324219 101.167969 76.722656 100.878906 77.285156 C 99.949219 79.085938 98.152344 82.570312 97.316406 83.953125 C 96.765625 84.863281 95.777344 86.496094 94.609375 88.164062 C 93.441406 89.832031 92.085938 91.527344 90.808594 92.550781 C 90.738281 92.605469 90.664062 92.664062 90.585938 92.71875 C 90.683594 92.660156 90.78125 92.601562 90.875 92.539062 C 91.773438 91.917969 92.765625 90.8125 93.671875 89.644531 C 94.585938 88.476562 95.425781 87.242188 96.015625 86.363281 C 97.800781 83.722656 99.390625 81.066406 100.609375 79.03125 C 101.121094 78.160156 101.644531 77.300781 102.183594 76.445312 C 102.925781 75.296875 102.761719 74.703125 102.292969 74.386719 C 101.804688 74.058594 100.976562 74.003906 100.480469 73.957031 C 98.875 73.816406 94.285156 73.722656 92.535156 73.691406 Z M 119.417969 68.140625 C 119.90625 69.664062 117.472656 70.476562 117.472656 70.476562 L 116.792969 70.042969 C 116.792969 70.042969 118.367188 68.867188 118.902344 67.902344 Z M 136.703125 87.589844 L 136.703125 87.929688 L 135.746094 87.929688 L 135.746094 90.421875 L 135.359375 90.421875 L 135.359375 87.929688 L 134.40625 87.929688 L 134.40625 87.589844 Z M 137.042969 87.589844 L 137.589844 87.589844 L 138.398438 89.984375 L 139.210938 87.589844 L 139.75 87.589844 L 139.75 90.421875 L 139.382812 90.421875 L 139.382812 88.75 L 139.386719 88.464844 C 139.390625 88.328125 139.394531 88.1875 139.394531 88.035156 L 138.585938 90.421875 L 138.207031 90.421875 L 137.398438 88.035156 L 137.398438 88.121094 C 137.398438 88.1875 137.398438 88.292969 137.402344 88.4375 L 137.40625 88.75 L 137.40625 90.421875 L 137.039062 90.421875 L 137.039062 87.589844 Z M 13.445312 152.667969 L 15.328125 152.667969 C 16.375 152.667969 17.144531 153.03125 17.636719 153.769531 C 18.125 154.503906 18.371094 155.328125 18.371094 156.246094 C 18.371094 157.382812 18.113281 158.296875 17.597656 158.988281 C 17.078125 159.683594 16.324219 160.027344 15.328125 160.027344 L 13.445312 160.027344 Z M 15.78125 161.019531 C 16.878906 161.019531 17.785156 160.566406 18.5 159.660156 C 19.214844 158.753906 19.570312 157.644531 19.570312 156.324219 C 19.570312 155.023438 19.207031 153.925781 18.46875 153.027344 C 17.738281 152.128906 16.710938 151.675781 15.394531 151.675781 L 12.265625 151.675781 L 12.265625 161.019531 Z M 22.558594 159.660156 C 22.191406 159.230469 22.007812 158.527344 22.007812 157.535156 C 22.007812 156.601562 22.191406 155.917969 22.558594 155.484375 C 22.925781 155.054688 23.375 154.839844 23.90625 154.839844 C 24.425781 154.839844 24.878906 155.054688 25.261719 155.476562 C 25.648438 155.90625 25.839844 156.59375 25.839844 157.542969 C 25.839844 158.484375 25.65625 159.183594 25.289062 159.628906 C 24.921875 160.078125 24.46875 160.300781 23.921875 160.300781 C 23.378906 160.300781 22.929688 160.089844 22.558594 159.660156 Z M 26.132812 160.1875 C 26.722656 159.507812 27.019531 158.628906 27.019531 157.550781 C 27.019531 156.519531 26.746094 155.660156 26.199219 154.96875 C 25.648438 154.277344 24.898438 153.933594 23.949219 153.933594 C 23.0625 153.933594 22.320312 154.261719 21.726562 154.917969 C 21.128906 155.574219 20.832031 156.449219 20.832031 157.546875 C 20.832031 158.585938 21.09375 159.453125 21.628906 160.15625 C 22.15625 160.859375 22.894531 161.207031 23.839844 161.207031 C 24.777344 161.207031 25.539062 160.867188 26.132812 160.1875 Z M 34.3125 161.019531 L 33.300781 161.019531 L 33.300781 156.59375 C 33.300781 155.957031 33.160156 155.507812 32.882812 155.25 C 32.613281 154.992188 32.253906 154.851562 31.878906 154.859375 C 31.332031 154.859375 30.875 155.078125 30.507812 155.515625 C 30.136719 155.953125 29.953125 156.527344 29.953125 157.238281 L 29.953125 161.019531 L 28.878906 161.019531 L 28.878906 154.125 L 29.886719 154.125 L 29.886719 155.386719 C 30.445312 154.417969 31.171875 153.933594 32.058594 153.933594 C 32.570312 153.933594 33.007812 154.066406 33.367188 154.332031 C 33.730469 154.601562 33.976562 154.902344 34.109375 155.230469 C 34.246094 155.566406 34.308594 156.164062 34.308594 157.03125 L 34.308594 161.019531 Z M 41.34375 160.257812 L 41.34375 161.121094 C 41.019531 161.175781 40.695312 161.203125 40.367188 161.207031 C 39.039062 161.207031 38.375 160.507812 38.375 159.109375 L 38.375 154.945312 L 37.152344 154.945312 L 37.152344 154.121094 L 38.375 154.121094 L 38.417969 152.382812 L 39.449219 152.285156 L 39.449219 154.121094 L 40.964844 154.121094 L 40.964844 154.945312 L 39.449219 154.945312 L 39.449219 159.277344 C 39.449219 159.988281 39.808594 160.339844 40.53125 160.339844 C 40.769531 160.339844 41.039062 160.316406 41.34375 160.257812 Z M 47.054688 151.675781 L 48.253906 151.675781 L 48.253906 152.878906 L 47.054688 152.878906 Z M 48.210938 154.039062 L 48.210938 161.226562 C 48.210938 162.039062 48.019531 162.601562 47.636719 162.921875 C 47.25 163.242188 46.78125 163.402344 46.226562 163.402344 C 45.953125 163.402344 45.621094 163.351562 45.222656 163.253906 L 45.222656 162.386719 C 45.519531 162.460938 45.78125 162.496094 46.007812 162.496094 C 46.410156 162.496094 46.703125 162.398438 46.875 162.203125 C 47.050781 162.011719 47.140625 161.679688 47.140625 161.207031 L 47.140625 154.039062 Z M 55.644531 161.019531 L 54.679688 161.019531 L 54.679688 159.691406 C 54.1875 160.703125 53.453125 161.207031 52.480469 161.207031 C 51.773438 161.207031 51.21875 160.976562 50.816406 160.511719 C 50.414062 160.046875 50.210938 159.386719 50.210938 158.53125 L 50.210938 154.125 L 51.285156 154.125 L 51.285156 158.511719 C 51.285156 159.191406 51.425781 159.660156 51.714844 159.917969 C 52 160.175781 52.308594 160.300781 52.652344 160.300781 C 53 160.300781 53.3125 160.203125 53.589844 160.007812 C 53.871094 159.816406 54.105469 159.539062 54.292969 159.179688 C 54.476562 158.820312 54.570312 158.425781 54.570312 158.003906 L 54.570312 154.125 L 55.644531 154.125 Z M 57.121094 159.203125 L 58.15625 158.992188 C 58.378906 159.863281 59.09375 160.300781 60.296875 160.300781 C 60.738281 160.300781 61.113281 160.203125 61.421875 160.003906 C 61.714844 159.832031 61.894531 159.511719 61.882812 159.167969 C 61.882812 158.632812 61.492188 158.296875 60.710938 158.152344 L 59.257812 157.867188 C 58.691406 157.761719 58.238281 157.546875 57.902344 157.230469 C 57.566406 156.910156 57.398438 156.488281 57.398438 155.964844 C 57.398438 155.386719 57.625 154.90625 58.085938 154.515625 C 58.542969 154.128906 59.160156 153.933594 59.9375 153.933594 C 61.429688 153.933594 62.351562 154.523438 62.703125 155.703125 L 61.734375 155.914062 C 61.453125 155.199219 60.875 154.839844 60 154.839844 C 59.566406 154.839844 59.207031 154.925781 58.929688 155.105469 C 58.652344 155.28125 58.511719 155.527344 58.511719 155.84375 C 58.511719 156.34375 58.863281 156.660156 59.570312 156.789062 L 60.910156 157.046875 C 62.316406 157.304688 63.019531 157.984375 63.019531 159.09375 C 63.019531 159.722656 62.757812 160.234375 62.234375 160.625 C 61.714844 161.015625 61.019531 161.210938 60.148438 161.210938 C 58.515625 161.207031 57.507812 160.539062 57.121094 159.203125 Z M 67.441406 160.257812 L 67.441406 161.121094 C 67.117188 161.175781 66.789062 161.203125 66.460938 161.207031 C 65.132812 161.207031 64.472656 160.507812 64.472656 159.109375 L 64.472656 154.945312 L 63.25 154.945312 L 63.25 154.121094 L 64.472656 154.121094 L 64.511719 152.382812 L 65.546875 152.285156 L 65.546875 154.121094 L 67.058594 154.121094 L 67.058594 154.945312 L 65.546875 154.945312 L 65.546875 159.277344 C 65.546875 159.988281 65.90625 160.339844 66.625 160.339844 C 66.867188 160.339844 67.136719 160.316406 67.441406 160.257812 Z M 75.765625 160.257812 L 75.765625 161.121094 C 75.441406 161.175781 75.117188 161.203125 74.789062 161.207031 C 73.460938 161.207031 72.800781 160.507812 72.800781 159.109375 L 72.800781 154.945312 L 71.578125 154.945312 L 71.578125 154.121094 L 72.800781 154.121094 L 72.839844 152.382812 L 73.875 152.285156 L 73.875 154.121094 L 75.386719 154.121094 L 75.386719 154.945312 L 73.875 154.945312 L 73.875 159.277344 C 73.875 159.988281 74.234375 160.339844 74.953125 160.339844 C 75.191406 160.339844 75.464844 160.316406 75.765625 160.257812 Z M 77.8125 161.019531 L 76.742188 161.019531 L 76.742188 154.125 L 77.6875 154.125 L 77.6875 155.746094 C 78.019531 154.988281 78.351562 154.496094 78.683594 154.269531 C 79.019531 154.042969 79.355469 153.933594 79.710938 153.933594 C 79.816406 153.933594 79.957031 153.941406 80.128906 153.957031 L 80.128906 154.988281 L 79.914062 154.988281 C 79.320312 154.988281 78.832031 155.210938 78.441406 155.652344 C 78.050781 156.089844 77.839844 156.671875 77.816406 157.386719 L 77.816406 161.019531 Z M 85.832031 158.027344 C 85.839844 158.632812 85.617188 159.21875 85.210938 159.667969 C 84.800781 160.132812 84.273438 160.363281 83.628906 160.363281 C 83.15625 160.363281 82.792969 160.246094 82.542969 160.011719 C 82.300781 159.796875 82.164062 159.484375 82.167969 159.160156 C 82.167969 158.628906 82.398438 158.230469 82.867188 157.953125 C 83.328125 157.675781 83.984375 157.539062 84.820312 157.539062 C 85.046875 157.539062 85.378906 157.554688 85.808594 157.582031 C 85.824219 157.753906 85.832031 157.902344 85.832031 158.027344 Z M 86.882812 159.679688 L 86.882812 156.753906 C 86.882812 155.714844 86.6875 154.984375 86.289062 154.566406 C 85.890625 154.144531 85.214844 153.933594 84.265625 153.933594 C 82.476562 153.933594 81.464844 154.574219 81.222656 155.851562 L 82.191406 156.019531 C 82.367188 155.191406 82.996094 154.777344 84.078125 154.777344 C 84.523438 154.777344 84.878906 154.851562 85.152344 154.992188 C 85.425781 155.140625 85.605469 155.332031 85.6875 155.578125 C 85.769531 155.820312 85.808594 156.214844 85.808594 156.761719 C 85.507812 156.746094 85.207031 156.738281 84.902344 156.734375 C 83.496094 156.734375 82.5 156.957031 81.910156 157.40625 C 81.324219 157.855469 81.03125 158.425781 81.03125 159.121094 C 81.03125 159.695312 81.234375 160.1875 81.648438 160.59375 C 82.058594 161.003906 82.644531 161.210938 83.414062 161.210938 C 84.542969 161.210938 85.34375 160.730469 85.808594 159.773438 C 85.855469 160.386719 85.894531 160.800781 85.941406 161.019531 L 87.011719 161.019531 C 86.921875 160.578125 86.878906 160.128906 86.882812 159.679688 Z M 93.949219 154.121094 L 91.570312 161.019531 L 90.4375 161.019531 L 87.992188 154.121094 L 89.179688 154.121094 L 91.097656 159.730469 L 93.011719 154.121094 Z M 96.277344 156.84375 C 96.320312 156.203125 96.53125 155.699219 96.902344 155.320312 C 97.253906 154.953125 97.746094 154.746094 98.257812 154.753906 C 98.652344 154.753906 98.992188 154.859375 99.273438 155.070312 C 99.558594 155.273438 99.753906 155.527344 99.875 155.824219 C 99.992188 156.121094 100.058594 156.460938 100.070312 156.839844 L 96.277344 156.839844 Z M 98.273438 160.300781 C 97.785156 160.300781 97.324219 160.117188 96.886719 159.757812 C 96.453125 159.398438 96.234375 158.699219 96.234375 157.667969 L 101.246094 157.667969 C 101.230469 156.421875 100.949219 155.488281 100.402344 154.867188 C 99.855469 154.246094 99.125 153.933594 98.226562 153.933594 C 97.308594 153.933594 96.550781 154.273438 95.941406 154.949219 C 95.335938 155.625 95.03125 156.511719 95.03125 157.609375 C 95.03125 158.679688 95.324219 159.554688 95.910156 160.214844 C 96.496094 160.878906 97.257812 161.207031 98.203125 161.207031 C 98.917969 161.207031 99.539062 161.015625 100.074219 160.625 C 100.582031 160.265625 100.957031 159.75 101.136719 159.15625 L 100.128906 158.953125 C 99.773438 159.851562 99.152344 160.300781 98.273438 160.300781 Z M 102.675781 151.675781 L 103.746094 151.675781 L 103.746094 161.019531 L 102.675781 161.019531 Z M 105.875 159.476562 L 107.414062 159.476562 L 107.414062 161.019531 L 105.875 161.019531 Z M 35.441406 154.171875 L 35.96875 151.46875 L 37.089844 151.46875 L 36.027344 154.171875 Z M 115.097656 161.019531 L 113.917969 161.019531 L 113.917969 152.710938 L 111.246094 152.710938 L 111.246094 151.675781 L 117.773438 151.675781 L 117.773438 152.710938 L 115.097656 152.710938 Z M 119.050781 161.019531 L 117.980469 161.019531 L 117.980469 154.125 L 118.925781 154.125 L 118.925781 155.746094 C 119.257812 154.988281 119.589844 154.496094 119.921875 154.269531 C 120.257812 154.042969 120.597656 153.933594 120.945312 153.933594 C 121.054688 153.933594 121.199219 153.941406 121.371094 153.957031 L 121.371094 154.988281 L 121.152344 154.988281 C 120.5625 154.988281 120.070312 155.210938 119.679688 155.652344 C 119.289062 156.089844 119.082031 156.671875 119.050781 157.386719 Z M 127.070312 158.027344 C 127.070312 158.65625 126.863281 159.203125 126.449219 159.667969 C 126.035156 160.132812 125.511719 160.363281 124.867188 160.363281 C 124.398438 160.363281 124.035156 160.246094 123.785156 160.011719 C 123.539062 159.796875 123.402344 159.484375 123.40625 159.160156 C 123.40625 158.628906 123.640625 158.230469 124.105469 157.953125 C 124.570312 157.675781 125.222656 157.539062 126.0625 157.539062 C 126.289062 157.539062 126.617188 157.554688 127.050781 157.582031 C 127.0625 157.753906 127.070312 157.902344 127.070312 158.027344 Z M 128.125 159.679688 L 128.125 156.753906 C 128.125 155.714844 127.925781 154.984375 127.527344 154.566406 C 127.132812 154.144531 126.457031 153.933594 125.503906 153.933594 C 123.714844 153.933594 122.699219 154.574219 122.460938 155.851562 L 123.425781 156.019531 C 123.605469 155.191406 124.234375 154.777344 125.316406 154.777344 C 125.761719 154.777344 126.117188 154.851562 126.390625 154.992188 C 126.660156 155.140625 126.84375 155.332031 126.925781 155.578125 C 127.007812 155.820312 127.050781 156.214844 127.050781 156.761719 C 126.636719 156.742188 126.332031 156.734375 126.144531 156.734375 C 124.734375 156.734375 123.734375 156.957031 123.148438 157.40625 C 122.5625 157.855469 122.269531 158.425781 122.269531 159.121094 C 122.269531 159.695312 122.472656 160.1875 122.882812 160.59375 C 123.296875 161.003906 123.886719 161.210938 124.652344 161.210938 C 125.78125 161.210938 126.578125 160.730469 127.050781 159.773438 C 127.089844 160.386719 127.132812 160.800781 127.175781 161.019531 L 128.25 161.019531 C 128.164062 160.578125 128.121094 160.128906 128.125 159.679688 Z M 135.300781 154.121094 L 132.921875 161.019531 L 131.785156 161.019531 L 129.34375 154.121094 L 130.53125 154.121094 L 132.449219 159.730469 L 134.363281 154.121094 Z M 137.488281 156.84375 C 137.53125 156.203125 137.742188 155.699219 138.113281 155.320312 C 138.464844 154.953125 138.957031 154.746094 139.46875 154.753906 C 139.867188 154.753906 140.203125 154.859375 140.484375 155.070312 C 140.765625 155.273438 140.96875 155.527344 141.085938 155.824219 C 141.203125 156.121094 141.269531 156.460938 141.277344 156.839844 L 137.488281 156.839844 Z M 139.484375 160.300781 C 138.996094 160.300781 138.539062 160.117188 138.101562 159.757812 C 137.664062 159.398438 137.445312 158.699219 137.445312 157.667969 L 142.457031 157.667969 C 142.441406 156.421875 142.164062 155.488281 141.613281 154.867188 C 141.066406 154.246094 140.339844 153.933594 139.4375 153.933594 C 138.519531 153.933594 137.757812 154.273438 137.152344 154.949219 C 136.546875 155.625 136.242188 156.511719 136.242188 157.609375 C 136.242188 158.679688 136.539062 159.554688 137.121094 160.214844 C 137.703125 160.878906 138.472656 161.207031 139.414062 161.207031 C 140.132812 161.207031 140.753906 161.015625 141.285156 160.625 C 141.8125 160.238281 142.171875 159.75 142.355469 159.15625 L 141.339844 158.953125 C 140.980469 159.851562 140.363281 160.300781 139.484375 160.300781 Z M 143.859375 151.675781 L 144.929688 151.675781 L 144.929688 161.019531 L 143.859375 161.019531 Z M 152.664062 152.710938 L 155.234375 152.710938 C 155.742188 152.710938 156.164062 152.84375 156.5 153.117188 C 156.832031 153.390625 157 153.769531 157 154.257812 C 157 154.746094 156.84375 155.15625 156.527344 155.496094 C 156.210938 155.832031 155.730469 156 155.09375 156 L 152.660156 156 L 152.660156 152.710938 Z M 156.453125 156.6875 C 157.066406 156.496094 157.511719 156.167969 157.777344 155.710938 C 158.046875 155.253906 158.179688 154.78125 158.179688 154.28125 C 158.179688 153.632812 157.941406 153.039062 157.460938 152.496094 C 156.976562 151.949219 156.238281 151.675781 155.242188 151.675781 L 151.566406 151.675781 L 151.566406 161.019531 L 152.664062 161.019531 L 152.664062 156.96875 L 155.355469 156.96875 L 157.0625 161.019531 L 158.285156 161.019531 Z M 160.300781 151.675781 L 161.460938 151.675781 L 161.460938 152.878906 L 160.300781 152.878906 Z M 160.34375 154.121094 L 161.417969 154.121094 L 161.417969 161.019531 L 160.34375 161.019531 Z M 165.105469 157.414062 C 164.828125 157.136719 164.6875 156.777344 164.6875 156.332031 C 164.6875 155.832031 164.84375 155.445312 165.152344 155.175781 C 165.441406 154.914062 165.820312 154.765625 166.214844 154.769531 C 166.628906 154.769531 166.984375 154.914062 167.28125 155.203125 C 167.574219 155.488281 167.722656 155.863281 167.722656 156.320312 C 167.722656 156.761719 167.578125 157.128906 167.296875 157.40625 C 167.015625 157.6875 166.652344 157.828125 166.199219 157.828125 C 165.75 157.828125 165.386719 157.691406 165.105469 157.414062 Z M 169.203125 153.003906 C 168.699219 153.003906 168.324219 153.09375 168.078125 153.269531 C 167.828125 153.445312 167.671875 153.761719 167.605469 154.222656 C 167.160156 154.019531 166.679688 153.917969 166.195312 153.925781 C 165.460938 153.925781 164.84375 154.144531 164.335938 154.582031 C 163.828125 155.023438 163.570312 155.582031 163.570312 156.265625 C 163.570312 157 163.871094 157.609375 164.46875 158.09375 C 163.828125 158.375 163.511719 158.78125 163.511719 159.316406 C 163.511719 159.765625 163.734375 160.136719 164.183594 160.433594 C 163.480469 160.679688 163.128906 161.140625 163.128906 161.808594 C 163.128906 162.359375 163.382812 162.800781 163.882812 163.128906 C 164.386719 163.460938 165.183594 163.625 166.277344 163.625 C 168.589844 163.625 169.742188 162.96875 169.742188 161.652344 C 169.742188 161.234375 169.613281 160.882812 169.355469 160.59375 C 169.109375 160.308594 168.777344 160.113281 168.410156 160.03125 C 168.035156 159.949219 167.457031 159.894531 166.671875 159.875 C 165.75 159.851562 165.164062 159.796875 164.914062 159.714844 C 164.667969 159.636719 164.539062 159.457031 164.539062 159.183594 C 164.539062 158.992188 164.628906 158.835938 164.800781 158.714844 C 164.96875 158.59375 165.117188 158.535156 165.238281 158.535156 C 165.304688 158.535156 165.460938 158.558594 165.710938 158.605469 C 165.839844 158.636719 165.996094 158.648438 166.179688 158.648438 C 166.980469 158.648438 167.625 158.421875 168.101562 157.96875 C 168.578125 157.519531 168.816406 156.976562 168.816406 156.347656 C 168.816406 155.742188 168.59375 155.183594 168.152344 154.671875 C 168.207031 154.375 168.320312 154.171875 168.484375 154.058594 C 168.652344 153.945312 168.980469 153.886719 169.46875 153.886719 L 169.46875 153.019531 C 169.378906 153.011719 169.292969 153.003906 169.203125 153.003906 Z M 166.585938 160.839844 C 167.210938 160.863281 167.644531 160.886719 167.898438 160.921875 C 168.152344 160.957031 168.351562 161.046875 168.492188 161.179688 C 168.636719 161.3125 168.714844 161.503906 168.707031 161.699219 C 168.707031 162.09375 168.464844 162.371094 167.976562 162.535156 C 167.488281 162.699219 166.949219 162.78125 166.363281 162.78125 C 165.726562 162.78125 165.207031 162.6875 164.796875 162.496094 C 164.386719 162.300781 164.183594 162.035156 164.183594 161.6875 C 164.183594 161.277344 164.433594 160.964844 164.929688 160.75 C 165.289062 160.789062 165.839844 160.824219 166.585938 160.839844 Z M 176.417969 161.019531 L 175.34375 161.019531 L 175.34375 156.847656 C 175.34375 156.355469 175.316406 155.992188 175.253906 155.742188 C 175.183594 155.488281 175.027344 155.265625 174.816406 155.109375 C 174.589844 154.929688 174.308594 154.835938 174.019531 154.84375 C 173.46875 154.84375 173.007812 155.0625 172.636719 155.511719 C 172.265625 155.957031 172.078125 156.554688 172.078125 157.304688 L 172.078125 161.019531 L 171.003906 161.019531 L 171.003906 151.679688 L 172.078125 151.679688 L 172.078125 155.390625 C 172.570312 154.417969 173.265625 153.933594 174.171875 153.933594 C 174.578125 153.933594 174.9375 154.011719 175.253906 154.171875 C 175.570312 154.332031 175.8125 154.542969 175.980469 154.804688 C 176.152344 155.0625 176.265625 155.316406 176.328125 155.570312 C 176.390625 155.820312 176.417969 156.242188 176.417969 156.835938 Z M 181.460938 160.257812 L 181.460938 161.121094 C 181.136719 161.175781 180.8125 161.203125 180.484375 161.207031 C 179.160156 161.207031 178.496094 160.507812 178.496094 159.109375 L 178.496094 154.945312 L 177.273438 154.945312 L 177.273438 154.121094 L 178.496094 154.121094 L 178.539062 152.382812 L 179.570312 152.285156 L 179.570312 154.121094 L 181.082031 154.121094 L 181.082031 154.945312 L 179.570312 154.945312 L 179.570312 159.277344 C 179.570312 159.988281 179.929688 160.339844 180.652344 160.339844 C 180.890625 160.339844 181.160156 160.316406 181.460938 160.257812 Z M 183 159.476562 L 184.535156 159.476562 L 184.535156 161.019531 L 183 161.019531 Z M 183.484375 152.609375 L 183.484375 152.796875 L 182.949219 152.796875 L 182.949219 154.195312 L 182.730469 154.195312 L 182.730469 152.796875 L 182.199219 152.796875 L 182.199219 152.609375 Z M 183.828125 152.609375 L 184.132812 152.609375 L 184.589844 153.949219 L 185.042969 152.609375 L 185.347656 152.609375 L 185.347656 154.195312 L 185.144531 154.195312 L 185.144531 153.257812 C 185.144531 153.226562 185.144531 153.175781 185.148438 153.101562 C 185.148438 153.023438 185.148438 152.945312 185.148438 152.859375 L 184.699219 154.195312 L 184.488281 154.195312 L 184.027344 152.859375 L 184.027344 152.90625 C 184.027344 152.945312 184.03125 153.003906 184.03125 153.085938 C 184.035156 153.164062 184.035156 153.222656 184.035156 153.261719 L 184.035156 154.195312 L 183.828125 154.195312 Z M 28.554688 122.550781 L 17.707031 122.550781 L 17.707031 127.191406 L 26.269531 127.191406 L 26.269531 131.507812 L 17.707031 131.507812 L 17.707031 136.402344 L 28.554688 136.402344 L 28.554688 140.914062 L 12.3125 140.914062 L 12.3125 118.230469 L 28.554688 118.230469 Z M 45.453125 124.140625 L 40.609375 131.890625 L 46.28125 140.914062 L 40.632812 140.914062 L 37.140625 135.164062 L 33.695312 140.914062 L 29.46875 140.914062 L 35.019531 131.855469 L 30.230469 124.140625 L 35.878906 124.140625 L 38.578125 128.617188 L 41.230469 124.140625 Z M 98.167969 124.140625 L 103.117188 124.140625 L 103.117188 140.914062 L 98.167969 140.914062 Z M 98.167969 118.195312 L 103.117188 118.195312 L 103.117188 122.640625 L 98.167969 122.640625 Z M 142.445312 134.589844 C 142.253906 136.589844 141.472656 138.207031 140.089844 139.441406 C 138.710938 140.675781 136.925781 141.292969 134.746094 141.292969 C 132.371094 141.292969 130.441406 140.507812 128.949219 138.929688 C 127.457031 137.351562 126.710938 135.238281 126.710938 132.59375 C 126.710938 129.953125 127.476562 127.808594 129 126.164062 C 130.523438 124.519531 132.558594 123.695312 135.113281 123.695312 C 137.160156 123.695312 138.863281 124.320312 140.207031 125.558594 C 141.554688 126.800781 142.300781 128.355469 142.449219 130.226562 L 137.875 130.492188 C 137.722656 128.460938 136.84375 127.445312 135.242188 127.445312 C 133.28125 127.445312 132.292969 129.054688 132.292969 132.277344 C 132.292969 134.421875 132.570312 135.785156 133.121094 136.363281 C 133.671875 136.9375 134.335938 137.226562 135.125 137.226562 C 136.660156 137.226562 137.574219 136.253906 137.875 134.304688 Z M 52.085938 131.03125 C 52.085938 129.613281 52.359375 128.605469 52.902344 128.015625 C 53.449219 127.421875 54.050781 127.125 54.71875 127.125 C 56.476562 127.125 57.355469 128.796875 57.355469 132.136719 C 57.355469 134.519531 57.085938 136.054688 56.554688 136.753906 C 56.019531 137.453125 55.414062 137.800781 54.738281 137.800781 C 54.191406 137.800781 53.6875 137.621094 53.21875 137.257812 C 52.753906 136.890625 52.449219 136.484375 52.304688 136.023438 C 52.160156 135.566406 52.089844 134.742188 52.089844 133.546875 L 52.089844 131.03125 Z M 52.085938 146.566406 L 52.085938 139.070312 C 52.898438 140.554688 54.253906 141.292969 56.152344 141.292969 C 58.035156 141.292969 59.558594 140.539062 60.730469 139.027344 C 61.902344 137.515625 62.492188 135.269531 62.492188 132.292969 C 62.492188 129.496094 61.910156 127.363281 60.746094 125.898438 C 59.585938 124.429688 58.09375 123.695312 56.269531 123.695312 C 54.15625 123.695312 52.679688 124.632812 51.835938 126.507812 L 51.835938 124.140625 L 47.265625 124.140625 L 47.265625 146.566406 Z M 77.472656 126 C 75.925781 124.464844 74.070312 123.695312 71.910156 123.695312 C 69.515625 123.695312 67.554688 124.519531 66.03125 126.171875 C 64.503906 127.824219 63.742188 129.992188 63.742188 132.679688 C 63.742188 134.484375 64.121094 136.035156 64.878906 137.328125 C 65.636719 138.621094 66.601562 139.609375 67.773438 140.28125 C 68.941406 140.957031 70.363281 141.292969 72.039062 141.292969 C 75.871094 141.292969 78.414062 139.351562 79.664062 135.464844 L 75.160156 135.132812 C 74.832031 136.871094 73.851562 137.738281 72.214844 137.738281 C 71.371094 137.75 70.554688 137.421875 69.953125 136.828125 C 69.324219 136.222656 69.007812 135.324219 69.007812 134.128906 C 69.007812 133.910156 69.011719 133.652344 69.027344 133.351562 L 79.792969 133.351562 C 79.792969 129.988281 79.019531 127.539062 77.472656 126 Z M 72.066406 126.9375 C 73.765625 126.9375 74.695312 128.101562 74.847656 130.429688 L 69.007812 130.429688 C 69.222656 128.101562 70.246094 126.9375 72.066406 126.9375 Z M 91.480469 118.230469 L 91.480469 125.8125 C 90.511719 124.402344 89.132812 123.695312 87.347656 123.695312 C 85.308594 123.695312 83.757812 124.492188 82.683594 126.078125 C 81.613281 127.671875 81.074219 129.871094 81.074219 132.679688 C 81.074219 135.378906 81.613281 137.488281 82.6875 139.011719 C 83.765625 140.535156 85.230469 141.292969 87.09375 141.292969 C 89.050781 141.292969 90.597656 140.285156 91.734375 138.273438 L 91.734375 140.914062 L 96.304688 140.914062 L 96.304688 118.230469 Z M 91.480469 134.261719 C 91.480469 135.375 91.222656 136.230469 90.703125 136.835938 C 90.1875 137.4375 89.585938 137.734375 88.898438 137.734375 C 87.109375 137.734375 86.214844 136.070312 86.214844 132.738281 C 86.214844 128.996094 87.171875 127.125 89.082031 127.125 C 90.679688 127.125 91.480469 128.453125 91.480469 131.105469 Z M 119.824219 137.757812 L 119.824219 130.109375 C 119.824219 128.625 119.722656 127.589844 119.527344 126.992188 C 119.328125 126.398438 118.949219 125.832031 118.386719 125.300781 C 117.824219 124.765625 117.042969 124.363281 116.039062 124.097656 C 114.992188 123.824219 113.910156 123.6875 112.828125 123.695312 C 110.933594 123.695312 109.238281 124.097656 107.734375 124.898438 C 106.238281 125.703125 105.339844 127.0625 105.042969 128.980469 L 109.609375 129.414062 C 109.804688 127.761719 110.757812 126.9375 112.46875 126.9375 C 114.074219 126.9375 114.875 127.753906 114.875 129.398438 L 114.875 130.367188 C 111.589844 130.613281 109.324219 130.992188 108.078125 131.5 C 106.835938 132.007812 105.933594 132.710938 105.375 133.601562 C 104.820312 134.480469 104.527344 135.496094 104.535156 136.535156 C 104.535156 137.984375 105.011719 139.144531 105.972656 140.003906 C 106.933594 140.863281 108.191406 141.292969 109.753906 141.292969 C 110.804688 141.292969 111.746094 141.097656 112.574219 140.703125 C 113.402344 140.304688 114.234375 139.503906 115.066406 138.296875 C 115.066406 139.378906 115.148438 140.253906 115.320312 140.914062 L 120.140625 140.914062 C 119.929688 140.277344 119.824219 139.226562 119.824219 137.757812 Z M 114.875 134.429688 C 114.875 135.488281 114.589844 136.375 114.007812 137.097656 C 113.429688 137.820312 112.714844 138.179688 111.859375 138.179688 C 111.203125 138.179688 110.691406 137.96875 110.339844 137.546875 C 109.980469 137.125 109.789062 136.585938 109.800781 136.03125 C 109.800781 134.289062 111.492188 133.25 114.875 132.90625 Z M 124.164062 136.46875 C 124.859375 136.46875 125.441406 136.707031 125.914062 137.183594 C 126.386719 137.664062 126.621094 138.246094 126.621094 138.925781 C 126.632812 139.578125 126.371094 140.207031 125.902344 140.664062 C 125.449219 141.132812 124.820312 141.390625 124.167969 141.382812 C 123.515625 141.390625 122.886719 141.132812 122.429688 140.664062 C 121.960938 140.207031 121.703125 139.578125 121.714844 138.925781 C 121.714844 138.230469 121.953125 137.648438 122.429688 137.175781 C 122.886719 136.710938 123.515625 136.457031 124.164062 136.46875 Z M 185.21875 140.914062 L 180.273438 140.914062 L 180.273438 131.53125 C 180.273438 130.210938 180.230469 129.351562 180.152344 128.957031 C 180.074219 128.558594 179.871094 128.226562 179.542969 127.96875 C 179.210938 127.707031 178.753906 127.570312 178.171875 127.570312 C 177.625 127.570312 177.070312 127.769531 176.496094 128.160156 C 175.925781 128.550781 175.640625 129.671875 175.640625 131.53125 L 175.640625 140.914062 L 170.691406 140.914062 L 170.691406 131.53125 C 170.691406 130.175781 170.632812 129.304688 170.511719 128.90625 C 170.398438 128.519531 170.15625 128.179688 169.832031 127.941406 C 169.496094 127.695312 169.070312 127.570312 168.554688 127.570312 C 167.714844 127.570312 167.085938 127.84375 166.675781 128.386719 C 166.265625 128.929688 166.0625 129.976562 166.0625 131.53125 L 166.0625 140.914062 L 161.238281 140.914062 L 161.238281 124.140625 L 165.933594 124.140625 L 165.933594 126.570312 C 166.714844 124.652344 168.277344 123.695312 170.621094 123.695312 C 172.742188 123.695312 174.277344 124.652344 175.226562 126.570312 C 176.15625 124.652344 177.789062 123.695312 180.117188 123.695312 C 181.226562 123.695312 182.183594 123.921875 182.984375 124.382812 C 183.785156 124.835938 184.359375 125.433594 184.703125 126.167969 C 185.046875 126.902344 185.21875 128.167969 185.21875 129.957031 Z M 147.40625 124.851562 C 146.277344 125.621094 145.359375 126.664062 144.742188 127.886719 C 144.09375 129.140625 143.769531 130.667969 143.769531 132.460938 C 143.769531 135.046875 144.488281 137.167969 145.921875 138.816406 C 147.355469 140.46875 149.261719 141.292969 151.65625 141.292969 C 154.121094 141.292969 156.101562 140.460938 157.589844 138.792969 C 159.078125 137.125 159.820312 135.042969 159.820312 132.546875 C 159.820312 130.015625 159.105469 127.90625 157.671875 126.222656 C 156.238281 124.539062 154.242188 123.695312 151.6875 123.695312 C 149.960938 123.695312 148.535156 124.082031 147.40625 124.851562 Z M 153.878906 128.117188 C 154.332031 128.902344 154.558594 130.398438 154.558594 132.605469 C 154.558594 134.679688 154.300781 136.085938 153.792969 136.820312 C 153.28125 137.558594 152.613281 137.925781 151.789062 137.925781 C 150.84375 137.925781 150.148438 137.496094 149.707031 136.628906 C 149.257812 135.765625 149.039062 134.339844 149.039062 132.355469 C 149.039062 130.195312 149.273438 128.75 149.738281 128.023438 C 150.203125 127.300781 150.902344 126.9375 151.824219 126.9375 C 152.746094 126.9375 153.429688 127.328125 153.878906 128.117188 Z M 191.175781 126.605469 C 191.175781 127.914062 190.117188 128.976562 188.808594 128.976562 C 187.527344 128.941406 186.503906 127.890625 186.503906 126.605469 C 186.503906 125.324219 187.527344 124.273438 188.808594 124.234375 C 189.460938 124.234375 190.054688 124.5 190.484375 124.933594 C 190.910156 125.359375 191.175781 125.953125 191.175781 126.605469 Z M 190.585938 126.605469 C 190.585938 126.113281 190.386719 125.671875 190.0625 125.351562 C 189.734375 125.015625 189.28125 124.824219 188.808594 124.824219 C 188.339844 124.824219 187.886719 125.011719 187.554688 125.347656 C 187.21875 125.679688 187.03125 126.132812 187.035156 126.605469 C 187.035156 127.097656 187.230469 127.542969 187.554688 127.867188 C 187.875 128.1875 188.316406 128.386719 188.808594 128.386719 C 189.789062 128.386719 190.585938 127.589844 190.585938 126.605469 Z M 189.308594 126.730469 L 189.683594 127.609375 L 189.726562 127.71875 L 189.292969 127.71875 L 189.273438 127.671875 L 188.914062 126.828125 L 188.449219 126.828125 L 188.449219 127.714844 L 188.0625 127.714844 L 188.0625 125.515625 L 188.945312 125.515625 C 189.0625 125.515625 189.167969 125.53125 189.257812 125.566406 C 189.34375 125.597656 189.425781 125.648438 189.488281 125.71875 L 189.492188 125.71875 C 189.644531 125.886719 189.703125 126.125 189.640625 126.34375 C 189.621094 126.402344 189.597656 126.460938 189.566406 126.515625 C 189.53125 126.574219 189.484375 126.625 189.429688 126.664062 C 189.390625 126.691406 189.351562 126.714844 189.308594 126.730469 Z M 188.449219 125.890625 L 188.449219 126.46875 L 188.914062 126.46875 C 188.96875 126.46875 189.023438 126.460938 189.074219 126.445312 C 189.113281 126.433594 189.148438 126.410156 189.175781 126.378906 C 189.203125 126.351562 189.226562 126.316406 189.238281 126.28125 C 189.253906 126.246094 189.261719 126.203125 189.261719 126.160156 C 189.261719 126.117188 189.253906 126.078125 189.238281 126.046875 C 189.226562 126.015625 189.203125 125.988281 189.179688 125.964844 L 189.175781 125.964844 C 189.109375 125.914062 189.027344 125.890625 188.945312 125.890625 Z M 188.449219 125.890625 "/>
</g>
</svg>
