<?xml version="1.0" encoding="UTF-8"?>
<svg xmlns="http://www.w3.org/2000/svg" xmlns:xlink="http://www.w3.org/1999/xlink" width="155px" height="116px" viewBox="0 0 154 116" version="1.1">
<g id="surface1">
<path style=" stroke:none;fill-rule:nonzero;fill:rgb(0%,0%,0%);fill-opacity:1;" d="M 22.023438 57.726562 C 21.917969 56.308594 20.738281 55.222656 19.328125 55.277344 C 17.8125 55.300781 16.605469 56.566406 16.632812 58.085938 C 16.632812 59.785156 17.8125 61 19.816406 61 L 23.613281 61 C 22.6875 62.441406 21.074219 63.320312 19.351562 63.320312 C 16.503906 63.320312 14.195312 61 14.195312 58.136719 C 14.195312 55.277344 16.503906 52.957031 19.351562 52.957031 C 22.203125 52.957031 24.511719 55.277344 24.511719 58.136719 C 24.511719 58.679688 24.410156 59.21875 24.253906 59.761719 L 18.503906 59.761719 L 18.503906 59.167969 L 20.535156 59.117188 C 21.558594 59.066406 22.023438 58.550781 22.023438 57.726562 "/>
<path style=" stroke:none;fill-rule:nonzero;fill:rgb(0%,0%,0%);fill-opacity:1;" d="M 28.796875 56.144531 L 30.773438 53.257812 L 33.496094 53.257812 L 30.160156 57.949219 L 33.777344 63 L 30.902344 63 L 28.746094 59.855469 L 26.566406 63 L 23.820312 63 L 27.359375 58.078125 L 23.921875 53.28125 L 26.796875 53.28125 Z M 28.796875 56.144531 "/>
<path style=" stroke:none;fill-rule:nonzero;fill:rgb(0%,0%,0%);fill-opacity:1;" d="M 36.625 66.996094 L 34.136719 66.996094 L 34.136719 53.257812 L 36.652344 53.257812 L 36.652344 55.136719 C 36.652344 55.191406 36.675781 55.214844 36.703125 55.214844 C 36.730469 55.214844 36.753906 55.191406 36.753906 55.164062 C 37.320312 53.851562 38.601562 52.972656 40.039062 52.972656 C 41.21875 52.972656 42.351562 53.488281 43.144531 54.367188 C 43.582031 54.828125 43.914062 55.394531 44.148438 55.988281 C 44.402344 56.660156 44.53125 57.382812 44.507812 58.128906 C 44.507812 58.851562 44.378906 59.574219 44.148438 60.269531 C 43.914062 60.863281 43.582031 61.429688 43.171875 61.890625 C 42.375 62.769531 41.246094 63.285156 40.066406 63.285156 C 38.628906 63.285156 37.34375 62.433594 36.78125 61.09375 C 36.753906 61.066406 36.730469 61.042969 36.730469 61.042969 C 36.703125 61.042969 36.675781 61.066406 36.675781 61.117188 L 36.675781 66.996094 Z M 39.320312 55.0625 C 38.601562 55.0625 37.910156 55.371094 37.421875 55.910156 C 36.882812 56.503906 36.574219 57.304688 36.601562 58.101562 C 36.601562 58.929688 36.882812 59.703125 37.421875 60.292969 C 37.910156 60.835938 38.601562 61.144531 39.320312 61.171875 C 40.066406 61.171875 40.757812 60.863281 41.246094 60.292969 C 41.785156 59.703125 42.066406 58.902344 42.066406 58.101562 C 42.09375 57.304688 41.785156 56.503906 41.246094 55.910156 C 40.757812 55.371094 40.066406 55.0625 39.320312 55.0625 Z M 39.320312 55.0625 "/>
<path style=" stroke:none;fill-rule:nonzero;fill:rgb(0%,0%,0%);fill-opacity:1;" d="M 53.128906 57.714844 C 53.027344 56.296875 51.847656 55.214844 50.433594 55.265625 C 48.921875 55.292969 47.714844 56.554688 47.738281 58.078125 C 47.738281 59.777344 48.921875 60.988281 50.921875 60.988281 L 54.722656 60.988281 C 53.796875 62.433594 52.179688 63.308594 50.460938 63.308594 C 47.613281 63.308594 45.300781 60.988281 45.300781 58.128906 C 45.300781 55.265625 47.613281 52.949219 50.460938 52.949219 C 53.308594 52.949219 55.621094 55.265625 55.621094 58.128906 C 55.621094 58.671875 55.515625 59.210938 55.363281 59.753906 L 49.613281 59.753906 L 49.613281 59.1875 L 51.640625 59.132812 C 52.667969 59.082031 53.128906 58.542969 53.128906 57.714844 "/>
<path style=" stroke:none;fill-rule:nonzero;fill:rgb(0%,0%,0%);fill-opacity:1;" d="M 60.90625 63.257812 C 59.726562 63.257812 58.597656 62.742188 57.800781 61.867188 C 57.363281 61.402344 57.03125 60.835938 56.800781 60.242188 C 56.542969 59.574219 56.414062 58.851562 56.441406 58.101562 C 56.441406 57.382812 56.570312 56.660156 56.800781 55.964844 C 57.03125 55.371094 57.363281 54.804688 57.800781 54.339844 C 58.597656 53.464844 59.726562 52.949219 60.90625 52.949219 C 62.34375 52.949219 63.628906 53.796875 64.191406 55.136719 C 64.21875 55.164062 64.242188 55.191406 64.242188 55.191406 C 64.269531 55.191406 64.296875 55.164062 64.296875 55.113281 L 64.296875 49.003906 L 66.808594 49.003906 L 66.808594 62.949219 L 64.296875 62.949219 L 64.296875 61.09375 C 64.296875 61.042969 64.269531 61.015625 64.242188 61.015625 C 64.21875 61.015625 64.191406 61.042969 64.191406 61.066406 C 63.628906 62.40625 62.320312 63.257812 60.90625 63.257812 Z M 61.574219 55.0625 C 60.828125 55.0625 60.136719 55.371094 59.648438 55.9375 C 59.109375 56.53125 58.828125 57.328125 58.828125 58.128906 C 58.800781 58.929688 59.109375 59.726562 59.648438 60.320312 C 60.136719 60.863281 60.828125 61.171875 61.574219 61.195312 C 62.292969 61.195312 62.984375 60.863281 63.472656 60.320312 C 64.011719 59.726562 64.320312 58.929688 64.296875 58.128906 C 64.296875 57.304688 64.011719 56.53125 63.472656 55.9375 C 63.011719 55.394531 62.320312 55.0625 61.574219 55.0625 Z M 61.574219 55.0625 "/>
<path style=" stroke:none;fill-rule:nonzero;fill:rgb(0%,0%,0%);fill-opacity:1;" d="M 71.097656 63 L 68.582031 63 L 68.582031 53.257812 L 71.097656 53.257812 Z M 69.839844 51.890625 C 69.042969 51.890625 68.375 51.21875 68.375 50.421875 C 68.375 49.621094 69.042969 48.953125 69.839844 48.953125 C 70.632812 48.953125 71.300781 49.621094 71.300781 50.421875 C 71.300781 51.21875 70.632812 51.890625 69.839844 51.890625 Z M 69.839844 51.890625 "/>
<path style=" stroke:none;fill-rule:nonzero;fill:rgb(0%,0%,0%);fill-opacity:1;" d="M 76.820312 63.257812 C 75.640625 63.257812 74.511719 62.742188 73.714844 61.867188 C 73.277344 61.402344 72.945312 60.835938 72.714844 60.242188 C 72.457031 59.574219 72.328125 58.851562 72.355469 58.101562 C 72.355469 57.382812 72.484375 56.660156 72.714844 55.964844 C 72.945312 55.371094 73.277344 54.804688 73.714844 54.339844 C 74.511719 53.464844 75.640625 52.949219 76.820312 52.949219 C 78.257812 52.949219 79.539062 53.796875 80.105469 55.136719 C 80.132812 55.164062 80.15625 55.191406 80.15625 55.191406 C 80.183594 55.191406 80.207031 55.164062 80.207031 55.113281 L 80.207031 53.230469 L 82.722656 53.230469 L 82.722656 62.976562 L 80.207031 62.976562 L 80.207031 61.09375 C 80.207031 61.042969 80.183594 61.015625 80.15625 61.015625 C 80.132812 61.015625 80.105469 61.042969 80.105469 61.066406 C 79.539062 62.40625 78.257812 63.257812 76.820312 63.257812 Z M 77.511719 55.0625 C 76.792969 55.0625 76.074219 55.371094 75.589844 55.910156 C 75.050781 56.503906 74.765625 57.304688 74.765625 58.101562 C 74.742188 58.902344 75.050781 59.703125 75.589844 60.292969 C 76.074219 60.835938 76.769531 61.144531 77.511719 61.171875 C 78.230469 61.171875 78.925781 60.835938 79.414062 60.292969 C 79.953125 59.703125 80.257812 58.902344 80.234375 58.101562 C 80.234375 57.277344 79.953125 56.503906 79.414062 55.910156 C 78.925781 55.394531 78.230469 55.0625 77.511719 55.0625 Z M 77.511719 55.0625 "/>
<path style=" stroke:none;fill-rule:nonzero;fill:rgb(0%,0%,0%);fill-opacity:1;" d="M 92.632812 67.226562 C 91.785156 67.226562 90.9375 67.074219 90.140625 66.789062 C 89.398438 66.507812 88.703125 66.09375 88.113281 65.554688 L 89.628906 63.902344 C 90.601562 64.675781 91.398438 65.113281 92.605469 65.113281 C 93.375 65.167969 94.121094 64.855469 94.605469 64.265625 C 95.042969 63.671875 95.25 62.949219 95.222656 62.203125 L 95.222656 61.015625 C 95.222656 60.964844 95.199219 60.9375 95.171875 60.9375 C 95.144531 60.9375 95.121094 60.964844 95.121094 60.988281 C 94.582031 62.304688 93.296875 63.15625 91.886719 63.179688 C 90.707031 63.179688 89.601562 62.664062 88.808594 61.816406 C 88.371094 61.351562 88.035156 60.808594 87.832031 60.21875 C 87.574219 59.546875 87.472656 58.824219 87.472656 58.101562 C 87.472656 57.382812 87.601562 56.660156 87.832031 55.988281 C 88.0625 55.394531 88.371094 54.855469 88.808594 54.390625 C 89.601562 53.515625 90.707031 53.023438 91.886719 53.023438 C 93.296875 53.023438 94.582031 53.902344 95.121094 55.214844 C 95.144531 55.242188 95.171875 55.265625 95.171875 55.265625 C 95.199219 55.265625 95.222656 55.242188 95.222656 55.191406 L 95.222656 53.308594 L 97.738281 53.308594 L 97.738281 62.484375 C 97.765625 63.75 97.277344 64.984375 96.402344 65.914062 C 95.453125 66.765625 94.144531 67.226562 92.632812 67.226562 Z M 92.527344 55.0625 C 91.808594 55.0625 91.117188 55.371094 90.628906 55.910156 C 90.089844 56.503906 89.808594 57.277344 89.832031 58.078125 C 89.808594 58.875 90.117188 59.648438 90.628906 60.242188 C 91.117188 60.785156 91.808594 61.09375 92.527344 61.09375 C 93.246094 61.09375 93.914062 60.785156 94.402344 60.242188 C 94.941406 59.648438 95.222656 58.875 95.222656 58.078125 C 95.222656 57.277344 94.941406 56.503906 94.402344 55.910156 C 93.941406 55.371094 93.246094 55.0625 92.527344 55.0625 Z M 92.527344 55.0625 "/>
<path style=" stroke:none;fill-rule:nonzero;fill:rgb(0%,0%,0%);fill-opacity:1;" d="M 102 53.257812 L 102 55.371094 C 102 55.421875 102.050781 55.421875 102.050781 55.371094 C 102.382812 53.617188 103.128906 52.972656 104.4375 52.972656 L 104.667969 52.972656 L 104.667969 55.628906 L 103.539062 55.628906 C 102.511719 55.628906 102 56.425781 102 57.5625 L 102 63 L 99.484375 63 L 99.484375 53.257812 Z M 102 53.257812 "/>
<path style=" stroke:none;fill-rule:nonzero;fill:rgb(0%,0%,0%);fill-opacity:1;" d="M 110.007812 63.308594 C 107.160156 63.335938 104.824219 61.042969 104.796875 58.179688 C 104.769531 55.320312 107.054688 52.972656 109.90625 52.949219 C 109.929688 52.949219 109.957031 52.949219 109.980469 52.949219 C 111.34375 52.949219 112.652344 53.488281 113.601562 54.46875 C 115.601562 56.480469 115.628906 59.753906 113.601562 61.789062 C 112.675781 62.769531 111.367188 63.308594 110.007812 63.308594 Z M 109.980469 55.214844 C 109.261719 55.214844 108.542969 55.523438 108.058594 56.039062 C 107.542969 56.609375 107.234375 57.328125 107.261719 58.101562 C 107.261719 58.875 107.542969 59.597656 108.058594 60.164062 C 109.058594 61.246094 110.75 61.273438 111.828125 60.269531 C 111.855469 60.242188 111.90625 60.191406 111.933594 60.164062 C 112.445312 59.597656 112.753906 58.875 112.726562 58.101562 C 112.726562 57.328125 112.445312 56.609375 111.933594 56.039062 C 111.417969 55.523438 110.726562 55.214844 109.980469 55.214844 Z M 109.980469 55.214844 "/>
<path style=" stroke:none;fill-rule:nonzero;fill:rgb(0%,0%,0%);fill-opacity:1;" d="M 120.351562 63.308594 C 117.914062 63.308594 116.347656 61.816406 116.347656 59.648438 L 116.347656 53.257812 L 118.863281 53.257812 L 118.863281 59.445312 C 118.8125 60.269531 119.425781 60.988281 120.25 61.042969 C 120.300781 61.042969 120.375 61.042969 120.429688 61.042969 C 121.25 61.042969 121.917969 60.398438 121.941406 59.574219 C 121.941406 59.546875 121.941406 59.496094 121.941406 59.46875 L 121.941406 53.257812 L 124.457031 53.257812 L 124.457031 59.648438 C 124.433594 61.816406 122.738281 63.308594 120.351562 63.308594 "/>
<path style=" stroke:none;fill-rule:nonzero;fill:rgb(0%,0%,0%);fill-opacity:1;" d="M 128.667969 66.996094 L 126.152344 66.996094 L 126.152344 53.257812 L 128.667969 53.257812 L 128.667969 55.136719 C 128.667969 55.191406 128.691406 55.214844 128.71875 55.214844 C 128.742188 55.214844 128.769531 55.191406 128.769531 55.164062 C 129.335938 53.851562 130.617188 52.972656 132.054688 52.972656 C 133.234375 52.972656 134.363281 53.488281 135.160156 54.367188 C 135.597656 54.828125 135.929688 55.394531 136.160156 55.988281 C 136.417969 56.660156 136.546875 57.382812 136.519531 58.128906 C 136.519531 58.851562 136.394531 59.574219 136.160156 60.269531 C 135.929688 60.863281 135.597656 61.429688 135.1875 61.890625 C 134.390625 62.769531 133.261719 63.285156 132.082031 63.285156 C 130.644531 63.285156 129.359375 62.433594 128.796875 61.09375 C 128.769531 61.066406 128.742188 61.042969 128.742188 61.042969 C 128.71875 61.042969 128.691406 61.066406 128.691406 61.117188 L 128.691406 66.996094 Z M 131.363281 55.0625 C 130.644531 55.0625 129.949219 55.371094 129.460938 55.910156 C 128.921875 56.503906 128.617188 57.304688 128.640625 58.101562 C 128.640625 58.929688 128.921875 59.703125 129.460938 60.292969 C 129.949219 60.835938 130.644531 61.144531 131.363281 61.171875 C 132.105469 61.171875 132.800781 60.863281 133.285156 60.292969 C 133.824219 59.703125 134.109375 58.902344 134.109375 58.101562 C 134.132812 57.304688 133.824219 56.503906 133.285156 55.910156 C 132.800781 55.371094 132.105469 55.0625 131.363281 55.0625 Z M 131.363281 55.0625 "/>
<path style=" stroke:none;fill-rule:nonzero;fill:rgb(0%,0%,0%);fill-opacity:1;" d="M 138.292969 53.28125 L 138.292969 53.539062 L 137.855469 53.539062 L 137.855469 54.753906 L 137.546875 54.753906 L 137.546875 53.539062 L 137.113281 53.539062 L 137.113281 53.28125 Z M 138.292969 53.28125 "/>
<path style=" stroke:none;fill-rule:nonzero;fill:rgb(0%,0%,0%);fill-opacity:1;" d="M 139.445312 53.28125 L 139.882812 53.28125 L 139.882812 54.753906 L 139.601562 54.753906 L 139.601562 53.773438 C 139.601562 53.746094 139.601562 53.695312 139.601562 53.644531 C 139.601562 53.59375 139.601562 53.539062 139.601562 53.515625 L 139.320312 54.726562 L 139.035156 54.726562 L 138.753906 53.515625 C 138.753906 53.539062 138.753906 53.59375 138.753906 53.644531 C 138.753906 53.695312 138.753906 53.746094 138.753906 53.773438 L 138.753906 54.753906 L 138.472656 54.753906 L 138.472656 53.28125 L 138.90625 53.28125 L 139.164062 54.417969 Z M 139.445312 53.28125 "/>
</g>
</svg>
