<?xml version="1.0" encoding="UTF-8"?>
<svg xmlns="http://www.w3.org/2000/svg" xmlns:xlink="http://www.w3.org/1999/xlink" width="101px" height="76px" viewBox="0 0 101 76" version="1.1">
<g id="surface1">
<path style=" stroke:none;fill-rule:nonzero;fill:rgb(0%,0%,0%);fill-opacity:1;" d="M 14.441406 37.820312 C 14.375 36.890625 13.601562 36.179688 12.675781 36.214844 C 11.683594 36.230469 10.890625 37.058594 10.90625 38.054688 C 10.90625 39.171875 11.683594 39.964844 12.996094 39.964844 L 15.488281 39.964844 C 14.878906 40.910156 13.820312 41.484375 12.691406 41.484375 C 10.824219 41.484375 9.308594 39.964844 9.308594 38.089844 C 9.308594 36.214844 10.824219 34.695312 12.691406 34.695312 C 14.5625 34.695312 16.074219 36.214844 16.074219 38.089844 C 16.074219 38.445312 16.007812 38.800781 15.90625 39.152344 L 12.136719 39.152344 L 12.136719 38.765625 L 13.464844 38.730469 C 14.140625 38.699219 14.441406 38.359375 14.441406 37.820312 "/>
<path style=" stroke:none;fill-rule:nonzero;fill:rgb(0%,0%,0%);fill-opacity:1;" d="M 18.886719 36.785156 L 20.183594 34.890625 L 21.96875 34.890625 L 19.777344 37.964844 L 22.152344 41.277344 L 20.265625 41.277344 L 18.851562 39.214844 L 17.421875 41.277344 L 15.621094 41.277344 L 17.945312 38.050781 L 15.6875 34.910156 L 17.574219 34.910156 Z M 18.886719 36.785156 "/>
<path style=" stroke:none;fill-rule:nonzero;fill:rgb(0%,0%,0%);fill-opacity:1;" d="M 24.019531 43.894531 L 22.386719 43.894531 L 22.386719 34.890625 L 24.039062 34.890625 L 24.039062 36.125 C 24.039062 36.160156 24.054688 36.175781 24.070312 36.175781 C 24.089844 36.175781 24.105469 36.160156 24.105469 36.140625 C 24.476562 35.28125 25.316406 34.707031 26.261719 34.707031 C 27.035156 34.707031 27.773438 35.042969 28.296875 35.617188 C 28.582031 35.921875 28.800781 36.292969 28.953125 36.683594 C 29.121094 37.121094 29.207031 37.59375 29.1875 38.085938 C 29.1875 38.558594 29.105469 39.03125 28.953125 39.484375 C 28.800781 39.875 28.582031 40.246094 28.3125 40.550781 C 27.792969 41.125 27.050781 41.460938 26.277344 41.460938 C 25.335938 41.460938 24.492188 40.90625 24.121094 40.027344 C 24.105469 40.011719 24.089844 39.992188 24.089844 39.992188 C 24.070312 39.992188 24.054688 40.011719 24.054688 40.042969 L 24.054688 43.894531 Z M 25.789062 36.074219 C 25.316406 36.074219 24.863281 36.277344 24.542969 36.632812 C 24.191406 37.019531 23.988281 37.542969 24.003906 38.066406 C 24.003906 38.609375 24.191406 39.113281 24.542969 39.503906 C 24.863281 39.859375 25.316406 40.058594 25.789062 40.078125 C 26.277344 40.078125 26.730469 39.875 27.050781 39.503906 C 27.40625 39.113281 27.589844 38.589844 27.589844 38.066406 C 27.605469 37.542969 27.40625 37.019531 27.050781 36.632812 C 26.730469 36.277344 26.277344 36.074219 25.789062 36.074219 Z M 25.789062 36.074219 "/>
<path style=" stroke:none;fill-rule:nonzero;fill:rgb(0%,0%,0%);fill-opacity:1;" d="M 34.84375 37.8125 C 34.777344 36.886719 34.003906 36.175781 33.078125 36.210938 C 32.085938 36.226562 31.292969 37.054688 31.308594 38.050781 C 31.308594 39.164062 32.085938 39.960938 33.398438 39.960938 L 35.886719 39.960938 C 35.28125 40.90625 34.222656 41.480469 33.09375 41.480469 C 31.226562 41.480469 29.710938 39.960938 29.710938 38.085938 C 29.710938 36.210938 31.226562 34.691406 33.09375 34.691406 C 34.960938 34.691406 36.476562 36.210938 36.476562 38.085938 C 36.476562 38.4375 36.410156 38.792969 36.308594 39.148438 L 32.539062 39.148438 L 32.539062 38.777344 L 33.867188 38.742188 C 34.542969 38.710938 34.84375 38.355469 34.84375 37.8125 "/>
<path style=" stroke:none;fill-rule:nonzero;fill:rgb(0%,0%,0%);fill-opacity:1;" d="M 39.945312 41.445312 C 39.171875 41.445312 38.429688 41.109375 37.910156 40.535156 C 37.621094 40.230469 37.402344 39.859375 37.253906 39.46875 C 37.082031 39.03125 37 38.558594 37.015625 38.066406 C 37.015625 37.59375 37.101562 37.121094 37.253906 36.664062 C 37.402344 36.277344 37.621094 35.90625 37.910156 35.601562 C 38.429688 35.027344 39.171875 34.691406 39.945312 34.691406 C 40.886719 34.691406 41.730469 35.246094 42.101562 36.125 C 42.117188 36.140625 42.132812 36.160156 42.132812 36.160156 C 42.152344 36.160156 42.167969 36.140625 42.167969 36.109375 L 42.167969 32.105469 L 43.816406 32.105469 L 43.816406 41.242188 L 42.167969 41.242188 L 42.167969 40.027344 C 42.167969 39.992188 42.152344 39.976562 42.132812 39.976562 C 42.117188 39.976562 42.101562 39.992188 42.101562 40.011719 C 41.730469 40.886719 40.871094 41.445312 39.945312 41.445312 Z M 40.382812 36.074219 C 39.894531 36.074219 39.441406 36.277344 39.121094 36.648438 C 38.765625 37.039062 38.582031 37.5625 38.582031 38.085938 C 38.566406 38.609375 38.765625 39.132812 39.121094 39.519531 C 39.441406 39.875 39.894531 40.078125 40.382812 40.09375 C 40.855469 40.09375 41.308594 39.875 41.628906 39.519531 C 41.980469 39.132812 42.183594 38.609375 42.167969 38.085938 C 42.167969 37.542969 41.980469 37.039062 41.628906 36.648438 C 41.324219 36.292969 40.871094 36.074219 40.382812 36.074219 Z M 40.382812 36.074219 "/>
<path style=" stroke:none;fill-rule:nonzero;fill:rgb(0%,0%,0%);fill-opacity:1;" d="M 46.628906 41.277344 L 44.980469 41.277344 L 44.980469 34.890625 L 46.628906 34.890625 Z M 45.804688 33.996094 C 45.28125 33.996094 44.84375 33.558594 44.84375 33.035156 C 44.84375 32.511719 45.28125 32.070312 45.804688 32.070312 C 46.324219 32.070312 46.761719 32.511719 46.761719 33.035156 C 46.761719 33.558594 46.324219 33.996094 45.804688 33.996094 Z M 45.804688 33.996094 "/>
<path style=" stroke:none;fill-rule:nonzero;fill:rgb(0%,0%,0%);fill-opacity:1;" d="M 50.382812 41.445312 C 49.609375 41.445312 48.867188 41.109375 48.34375 40.535156 C 48.058594 40.230469 47.839844 39.859375 47.6875 39.46875 C 47.519531 39.03125 47.4375 38.558594 47.453125 38.066406 C 47.453125 37.59375 47.539062 37.121094 47.6875 36.664062 C 47.839844 36.277344 48.058594 35.90625 48.34375 35.601562 C 48.867188 35.027344 49.609375 34.691406 50.382812 34.691406 C 51.324219 34.691406 52.167969 35.246094 52.535156 36.125 C 52.554688 36.140625 52.570312 36.160156 52.570312 36.160156 C 52.585938 36.160156 52.605469 36.140625 52.605469 36.109375 L 52.605469 34.875 L 54.253906 34.875 L 54.253906 41.257812 L 52.605469 41.257812 L 52.605469 40.027344 C 52.605469 39.992188 52.585938 39.976562 52.570312 39.976562 C 52.554688 39.976562 52.535156 39.992188 52.535156 40.011719 C 52.167969 40.886719 51.324219 41.445312 50.382812 41.445312 Z M 50.835938 36.074219 C 50.367188 36.074219 49.894531 36.277344 49.574219 36.632812 C 49.21875 37.019531 49.035156 37.542969 49.035156 38.066406 C 49.019531 38.589844 49.21875 39.113281 49.574219 39.503906 C 49.894531 39.859375 50.347656 40.058594 50.835938 40.078125 C 51.308594 40.078125 51.761719 39.859375 52.082031 39.503906 C 52.4375 39.113281 52.636719 38.589844 52.621094 38.066406 C 52.621094 37.527344 52.4375 37.019531 52.082031 36.632812 C 51.761719 36.292969 51.308594 36.074219 50.835938 36.074219 Z M 50.835938 36.074219 "/>
<path style=" stroke:none;fill-rule:nonzero;fill:rgb(0%,0%,0%);fill-opacity:1;" d="M 60.75 44.046875 C 60.195312 44.046875 59.640625 43.945312 59.117188 43.757812 C 58.628906 43.574219 58.175781 43.304688 57.789062 42.949219 L 58.78125 41.867188 C 59.421875 42.375 59.945312 42.660156 60.734375 42.660156 C 61.238281 42.695312 61.726562 42.492188 62.046875 42.105469 C 62.332031 41.714844 62.46875 41.242188 62.453125 40.753906 L 62.453125 39.976562 C 62.453125 39.941406 62.433594 39.925781 62.417969 39.925781 C 62.402344 39.925781 62.382812 39.941406 62.382812 39.960938 C 62.03125 40.820312 61.1875 41.378906 60.261719 41.394531 C 59.488281 41.394531 58.765625 41.058594 58.242188 40.5 C 57.957031 40.195312 57.738281 39.839844 57.605469 39.453125 C 57.433594 39.011719 57.367188 38.539062 57.367188 38.066406 C 57.367188 37.59375 57.453125 37.121094 57.605469 36.683594 C 57.753906 36.292969 57.957031 35.941406 58.242188 35.636719 C 58.765625 35.0625 59.488281 34.742188 60.261719 34.742188 C 61.1875 34.742188 62.03125 35.316406 62.382812 36.175781 C 62.402344 36.191406 62.417969 36.210938 62.417969 36.210938 C 62.433594 36.210938 62.453125 36.191406 62.453125 36.160156 L 62.453125 34.925781 L 64.101562 34.925781 L 64.101562 40.9375 C 64.117188 41.765625 63.796875 42.578125 63.226562 43.183594 C 62.601562 43.742188 61.746094 44.046875 60.75 44.046875 Z M 60.683594 36.074219 C 60.210938 36.074219 59.757812 36.277344 59.4375 36.632812 C 59.085938 37.019531 58.898438 37.527344 58.917969 38.050781 C 58.898438 38.574219 59.101562 39.082031 59.4375 39.46875 C 59.757812 39.824219 60.210938 40.027344 60.683594 40.027344 C 61.15625 40.027344 61.59375 39.824219 61.914062 39.46875 C 62.265625 39.082031 62.453125 38.574219 62.453125 38.050781 C 62.453125 37.527344 62.265625 37.019531 61.914062 36.632812 C 61.609375 36.277344 61.15625 36.074219 60.683594 36.074219 Z M 60.683594 36.074219 "/>
<path style=" stroke:none;fill-rule:nonzero;fill:rgb(0%,0%,0%);fill-opacity:1;" d="M 66.894531 34.890625 L 66.894531 36.277344 C 66.894531 36.3125 66.929688 36.3125 66.929688 36.277344 C 67.148438 35.128906 67.636719 34.707031 68.496094 34.707031 L 68.644531 34.707031 L 68.644531 36.445312 L 67.90625 36.445312 C 67.230469 36.445312 66.894531 36.96875 66.894531 37.710938 L 66.894531 41.277344 L 65.246094 41.277344 L 65.246094 34.890625 Z M 66.894531 34.890625 "/>
<path style=" stroke:none;fill-rule:nonzero;fill:rgb(0%,0%,0%);fill-opacity:1;" d="M 72.148438 41.480469 C 70.277344 41.496094 68.746094 39.992188 68.730469 38.117188 C 68.714844 36.242188 70.210938 34.707031 72.082031 34.691406 C 72.097656 34.691406 72.113281 34.691406 72.128906 34.691406 C 73.023438 34.691406 73.882812 35.042969 74.503906 35.6875 C 75.816406 37.003906 75.835938 39.148438 74.503906 40.484375 C 73.898438 41.125 73.039062 41.480469 72.148438 41.480469 Z M 72.128906 36.175781 C 71.660156 36.175781 71.1875 36.378906 70.867188 36.714844 C 70.53125 37.089844 70.328125 37.5625 70.347656 38.066406 C 70.347656 38.574219 70.53125 39.046875 70.867188 39.417969 C 71.523438 40.128906 72.636719 40.144531 73.34375 39.484375 C 73.359375 39.46875 73.394531 39.4375 73.410156 39.417969 C 73.746094 39.046875 73.949219 38.574219 73.933594 38.066406 C 73.933594 37.5625 73.746094 37.089844 73.410156 36.714844 C 73.074219 36.378906 72.617188 36.175781 72.128906 36.175781 Z M 72.128906 36.175781 "/>
<path style=" stroke:none;fill-rule:nonzero;fill:rgb(0%,0%,0%);fill-opacity:1;" d="M 78.929688 41.480469 C 77.332031 41.480469 76.304688 40.5 76.304688 39.082031 L 76.304688 34.890625 L 77.957031 34.890625 L 77.957031 38.945312 C 77.921875 39.484375 78.324219 39.960938 78.863281 39.992188 C 78.898438 39.992188 78.949219 39.992188 78.980469 39.992188 C 79.519531 39.992188 79.957031 39.570312 79.976562 39.03125 C 79.976562 39.011719 79.976562 38.980469 79.976562 38.960938 L 79.976562 34.890625 L 81.625 34.890625 L 81.625 39.082031 C 81.609375 40.5 80.496094 41.480469 78.929688 41.480469 "/>
<path style=" stroke:none;fill-rule:nonzero;fill:rgb(0%,0%,0%);fill-opacity:1;" d="M 84.386719 43.894531 L 82.734375 43.894531 L 82.734375 34.890625 L 84.386719 34.890625 L 84.386719 36.125 C 84.386719 36.160156 84.402344 36.175781 84.417969 36.175781 C 84.4375 36.175781 84.453125 36.160156 84.453125 36.140625 C 84.824219 35.28125 85.664062 34.707031 86.609375 34.707031 C 87.382812 34.707031 88.121094 35.042969 88.644531 35.617188 C 88.929688 35.921875 89.148438 36.292969 89.300781 36.683594 C 89.46875 37.121094 89.554688 37.59375 89.535156 38.085938 C 89.535156 38.558594 89.453125 39.03125 89.300781 39.484375 C 89.148438 39.875 88.929688 40.246094 88.660156 40.550781 C 88.140625 41.125 87.398438 41.460938 86.625 41.460938 C 85.683594 41.460938 84.839844 40.90625 84.46875 40.027344 C 84.453125 40.011719 84.4375 39.992188 84.4375 39.992188 C 84.417969 39.992188 84.402344 40.011719 84.402344 40.042969 L 84.402344 43.894531 Z M 86.152344 36.074219 C 85.683594 36.074219 85.226562 36.277344 84.90625 36.632812 C 84.554688 37.019531 84.351562 37.542969 84.367188 38.066406 C 84.367188 38.609375 84.554688 39.113281 84.90625 39.503906 C 85.226562 39.859375 85.683594 40.058594 86.152344 40.078125 C 86.640625 40.078125 87.09375 39.875 87.414062 39.503906 C 87.769531 39.113281 87.953125 38.589844 87.953125 38.066406 C 87.972656 37.542969 87.769531 37.019531 87.414062 36.632812 C 87.09375 36.277344 86.640625 36.074219 86.152344 36.074219 Z M 86.152344 36.074219 "/>
<path style=" stroke:none;fill-rule:nonzero;fill:rgb(0%,0%,0%);fill-opacity:1;" d="M 90.699219 34.910156 L 90.699219 35.078125 L 90.410156 35.078125 L 90.410156 35.871094 L 90.210938 35.871094 L 90.210938 35.078125 L 89.921875 35.078125 L 89.921875 34.910156 Z M 90.699219 34.910156 "/>
<path style=" stroke:none;fill-rule:nonzero;fill:rgb(0%,0%,0%);fill-opacity:1;" d="M 91.457031 34.910156 L 91.742188 34.910156 L 91.742188 35.871094 L 91.554688 35.871094 L 91.554688 35.230469 C 91.554688 35.214844 91.554688 35.179688 91.554688 35.144531 C 91.554688 35.113281 91.554688 35.078125 91.554688 35.0625 L 91.371094 35.855469 L 91.1875 35.855469 L 91 35.0625 C 91 35.078125 91 35.113281 91 35.144531 C 91 35.179688 91 35.214844 91 35.230469 L 91 35.871094 L 90.816406 35.871094 L 90.816406 34.910156 L 91.101562 34.910156 L 91.269531 35.652344 Z M 91.457031 34.910156 "/>
</g>
</svg>
